<?xml version="1.0" encoding="UTF-8"?>
<svg xmlns="http://www.w3.org/2000/svg" viewBox="0 0 620 620" width="620" height="620" class="diecut"><g transform="translate(89.99999999999997 89.99999999999997) scale(4.4)"><path d="M32 12 L68 12 Q88 12 88 32 L88 48 Q88 68 68 68 L48 68 L22 88 L38 68 L32 68 Q12 68 12 48 L12 32 Q12 12 32 12 Z" fill="none" stroke="#15A39A" stroke-width="11" stroke-dasharray="2.4 2.4" stroke-linejoin="round"/><path d="M32 12 L68 12 Q88 12 88 32 L88 48 Q88 68 68 68 L48 68 L22 88 L38 68 L32 68 Q12 68 12 48 L12 32 Q12 12 32 12 Z" fill="#FFFDF8" stroke="#FFFDF8" stroke-width="5" stroke-linejoin="round"/><circle cx="35" cy="33" r="5.6" fill="#E64C81"/><circle cx="50" cy="30" r="5.6" fill="#15A39A"/><circle cx="65" cy="33" r="5.6" fill="#F6C744"/><circle cx="42" cy="47" r="5.6" fill="#5BA86B"/><circle cx="58" cy="47" r="5.6" fill="#312B3D"/></g></svg>