<?xml version="1.0" encoding="UTF-8"?>
<svg xmlns="http://www.w3.org/2000/svg" viewBox="0 0 620 620" width="620" height="620" class="diecut"><g transform="translate(89.99999999999997 89.99999999999997) scale(4.4)"><path d="M50 16 C74 16 90 32 90 52 C90 66 80 74 70 74 C63 74 60 70 54 70 C47 70 44 78 44 84 C30 84 10 70 10 50 C10 30 26 16 50 16 Z" fill="none" stroke="#E64C81" stroke-width="11" stroke-dasharray="2.4 2.4" stroke-linejoin="round"/><path d="M50 16 C74 16 90 32 90 52 C90 66 80 74 70 74 C63 74 60 70 54 70 C47 70 44 78 44 84 C30 84 10 70 10 50 C10 30 26 16 50 16 Z" fill="#FFFDF8" stroke="#FFFDF8" stroke-width="5" stroke-linejoin="round"/><circle cx="74" cy="49" r="7" fill="none" stroke="#312B3D" stroke-width="4"/><circle cx="36" cy="42" r="6.5" fill="#E64C81"/><circle cx="54" cy="35" r="6.5" fill="#15A39A"/><circle cx="40" cy="60" r="6.5" fill="#F6C744"/><circle cx="58" cy="55" r="6.5" fill="#5BA86B"/></g></svg>