<?xml version="1.0" encoding="UTF-8"?>
<svg xmlns="http://www.w3.org/2000/svg" viewBox="0 0 1080 1080" width="1080" height="1080"><rect width="1080" height="1080" fill="#FBF4E8"/><circle cx="180" cy="290" r="119" fill="none" stroke="#D9B79A" stroke-width="2.5" stroke-dasharray="8 8"/><circle cx="180" cy="290" r="108" fill="#FBF4E8" stroke="#EADCC6" stroke-width="3"/><g transform="translate(97 207) scale(1.66)"><path d="M21 49 Q50 80 79 49" fill="none" stroke="#E64C81" stroke-width="14" stroke-linecap="round"/><path d="M47 36 Q61 28 75 30" fill="none" stroke="#15A39A" stroke-width="5.4" stroke-linecap="round"/><path d="M81 16 L83.4 19.6 L87 22 L83.4 24.4 L81 28 L78.6 24.4 L75 22 L78.6 19.6 Z" fill="#F6C744"/></g><circle cx="420" cy="290" r="119" fill="none" stroke="#D9B79A" stroke-width="2.5" stroke-dasharray="8 8"/><circle cx="420" cy="290" r="108" fill="#E64C81"/><g transform="translate(337 207) scale(1.66)"><path d="M21 49 Q50 80 79 49" fill="none" stroke="#FFFDF8" stroke-width="14" stroke-linecap="round"/><path d="M47 36 Q61 28 75 30" fill="none" stroke="#15A39A" stroke-width="5.4" stroke-linecap="round"/><path d="M81 16 L83.4 19.6 L87 22 L83.4 24.4 L81 28 L78.6 24.4 L75 22 L78.6 19.6 Z" fill="#F6C744"/></g><circle cx="660" cy="290" r="119" fill="none" stroke="#D9B79A" stroke-width="2.5" stroke-dasharray="8 8"/><circle cx="660" cy="290" r="108" fill="#312B3D"/><g transform="translate(577 207) scale(1.66)"><rect x="14" y="14" width="72" height="52" rx="18" fill="#FFFDF8" stroke="#312B3D" stroke-width="3"/><path d="M30 60 L24 82 L46 64 Z" fill="#FFFDF8"/><path d="M30 60 L24 82 L46 64" fill="none" stroke="#312B3D" stroke-width="3" stroke-linecap="round" stroke-linejoin="round"/><circle cx="35" cy="33" r="5.6" fill="#E64C81"/><circle cx="50" cy="30" r="5.6" fill="#15A39A"/><circle cx="65" cy="33" r="5.6" fill="#F6C744"/><circle cx="42" cy="47" r="5.6" fill="#5BA86B"/><circle cx="58" cy="47" r="5.6" fill="#BFE6F2"/></g><circle cx="900" cy="290" r="119" fill="none" stroke="#D9B79A" stroke-width="2.5" stroke-dasharray="8 8"/><circle cx="900" cy="290" r="108" fill="#F6C744"/><g transform="translate(817 207) scale(1.66)"><path d="M50 17 C67 15 85 30 82 49 C80 67 70 73 72 82 C62 84 60 78 47 81 C30 85 15 68 18 49 C21 31 33 19 50 17 Z" fill="#E64C81"/><circle cx="40" cy="42" r="6" fill="#FFFFFF" opacity="0.45"/></g><circle cx="300" cy="590" r="119" fill="none" stroke="#D9B79A" stroke-width="2.5" stroke-dasharray="8 8"/><circle cx="300" cy="590" r="108" fill="#5BA86B"/><g transform="translate(217 507) scale(1.66)"><path d="M21 49 Q50 80 79 49" fill="none" stroke="#FFFDF8" stroke-width="14" stroke-linecap="round"/><path d="M47 36 Q61 28 75 30" fill="none" stroke="#15A39A" stroke-width="5.4" stroke-linecap="round"/><path d="M81 16 L83.4 19.6 L87 22 L83.4 24.4 L81 28 L78.6 24.4 L75 22 L78.6 19.6 Z" fill="#F6C744"/></g><circle cx="540" cy="590" r="119" fill="none" stroke="#D9B79A" stroke-width="2.5" stroke-dasharray="8 8"/><circle cx="540" cy="590" r="108" fill="#BFE6F2"/><g transform="translate(457 507) scale(1.66)"><rect x="14" y="14" width="72" height="52" rx="18" fill="#FFFDF8" stroke="#312B3D" stroke-width="3"/><path d="M30 60 L24 82 L46 64 Z" fill="#FFFDF8"/><path d="M30 60 L24 82 L46 64" fill="none" stroke="#312B3D" stroke-width="3" stroke-linecap="round" stroke-linejoin="round"/><circle cx="35" cy="33" r="5.6" fill="#E64C81"/><circle cx="50" cy="30" r="5.6" fill="#15A39A"/><circle cx="65" cy="33" r="5.6" fill="#F6C744"/><circle cx="42" cy="47" r="5.6" fill="#5BA86B"/><circle cx="58" cy="47" r="5.6" fill="#BFE6F2"/></g><circle cx="780" cy="590" r="119" fill="none" stroke="#D9B79A" stroke-width="2.5" stroke-dasharray="8 8"/><circle cx="780" cy="590" r="108" fill="#15A39A"/><g transform="translate(697 507) scale(1.66)"><path d="M21 49 Q50 80 79 49" fill="none" stroke="#FFFDF8" stroke-width="14" stroke-linecap="round"/><path d="M47 36 Q61 28 75 30" fill="none" stroke="#E64C81" stroke-width="5.4" stroke-linecap="round"/><path d="M81 16 L83.4 19.6 L87 22 L83.4 24.4 L81 28 L78.6 24.4 L75 22 L78.6 19.6 Z" fill="#F6C744"/></g><rect x="360" y="850" width="360" height="104" rx="52" fill="#15A39A"/><text x="540" y="920" text-anchor="middle" font-family="'Nunito Sans','Trebuchet MS',sans-serif" font-weight="800" font-size="40" letter-spacing="-1.2"><tspan fill="#FFFFFF">hello</tspan><tspan fill="#FFFFFF" dx="10.4">paint</tspan></text></svg>