<?xml version="1.0" encoding="UTF-8"?>
<svg xmlns="http://www.w3.org/2000/svg" viewBox="0 0 900 320" width="900" height="320">
  <rect width="900" height="320" fill="#FFFFFF"/>
  <!-- mark: snapshot smile -->
  <g transform="translate(60 105) scale(1.05)">
    <circle cx="50" cy="50" r="50" fill="#FBF4E8"/>
    <g transform="translate(18 20) scale(0.64)">
      <path d="M21 49 Q50 80 79 49" fill="none" stroke="#E64C81" stroke-width="14" stroke-linecap="round"/>
      <path d="M47 36 Q61 28 75 30" fill="none" stroke="#15A39A" stroke-width="5.4" stroke-linecap="round"/>
      <path d="M81 16 L83.4 19.6 L87 22 L83.4 24.4 L81 28 L78.6 24.4 L75 22 L78.6 19.6 Z" fill="#F6C744"/>
    </g>
  </g>
  <!-- name + role (editable text) -->
  <text x="200" y="118" font-family="'Nunito Sans','Trebuchet MS',sans-serif" font-weight="800" font-size="34" fill="#312B3D">Megan Warren</text>
  <text x="202" y="150" font-family="'Fraunces',Georgia,serif" font-style="italic" font-weight="500" font-size="20" fill="#6E6576">maker, Hello Paint</text>
  <line x1="200" y1="170" x2="470" y2="170" stroke="#EADCC6" stroke-width="2"/>
  <text x="200" y="200" font-family="'Nunito Sans','Trebuchet MS',sans-serif" font-weight="700" font-size="20" fill="#E64C81">hello@hellopaint.studio</text>
  <text x="200" y="228" font-family="'Nunito Sans','Trebuchet MS',sans-serif" font-weight="700" font-size="20" fill="#E64C81">hellopaint.studio<tspan fill="#6E6576" font-weight="600">  ·  </tspan>@hellopaint</text>
  <text x="200" y="258" font-family="'Fraunces',Georgia,serif" font-style="italic" font-weight="500" font-size="18" fill="#6E6576">your photo, painted by you</text>
  <circle cx="208" cy="282" r="9" fill="#E64C81"/>
  <circle cx="240" cy="282" r="9" fill="#15A39A"/>
  <circle cx="272" cy="282" r="9" fill="#F6C744"/>
  <circle cx="304" cy="282" r="9" fill="#5BA86B"/>
</svg>
