<?xml version="1.0" encoding="UTF-8"?>
<svg xmlns="http://www.w3.org/2000/svg" viewBox="0 0 1080 1920" width="1080" height="1920">
  <rect width="1080" height="1920" fill="#FBF4E8"/>
  <!-- confetti dots -->
  <g opacity="0.16">
    <circle cx="120" cy="220" r="12" fill="#E64C81"/><circle cx="960" cy="180" r="10" fill="#15A39A"/>
    <circle cx="980" cy="1700" r="12" fill="#F6C744"/><circle cx="130" cy="1760" r="11" fill="#5BA86B"/>
    <circle cx="540" cy="140" r="9" fill="#15A39A"/><circle cx="90" cy="980" r="10" fill="#FBD0DD"/>
    <circle cx="990" cy="980" r="10" fill="#E64C81"/><circle cx="540" cy="1820" r="9" fill="#5BA86B"/>
  </g>
  <!-- photo drop zone (EDITABLE) -->
  <rect x="120" y="300" width="840" height="700" rx="36" fill="#FFFFFF" stroke="#D9B79A" stroke-width="3" stroke-dasharray="12 10"/>
  <text x="540" y="660" text-anchor="middle" font-family="'Nunito Sans','Trebuchet MS',sans-serif" font-weight="800" font-size="32" letter-spacing="2" fill="#b89a7e">DROP A PHOTO HERE</text>
  <!-- HEADLINE (EDITABLE) -->
  <text x="540" y="1200" text-anchor="middle" font-family="'Fraunces',Georgia,serif" font-weight="600" font-size="88" letter-spacing="-2.2" fill="#E64C81">your headline</text>
  <text x="540" y="1300" text-anchor="middle" font-family="'Fraunces',Georgia,serif" font-style="italic" font-weight="500" font-size="60" fill="#312B3D">a short second line</text>
  <!-- CTA pill (EDITABLE) -->
  <rect x="340" y="1430" width="400" height="110" rx="55" fill="#E64C81"/>
  <text x="540" y="1500" text-anchor="middle" font-family="'Nunito Sans','Trebuchet MS',sans-serif" font-weight="800" font-size="40" fill="#FFFFFF">shop now</text>
  <!-- smile mark + wordmark -->
  <g transform="translate(496 1620) scale(0.85)">
    <path d="M21 49 Q50 80 79 49" fill="none" stroke="#E64C81" stroke-width="14" stroke-linecap="round"/>
    <path d="M47 36 Q61 28 75 30" fill="none" stroke="#15A39A" stroke-width="5.4" stroke-linecap="round"/>
    <path d="M81 16 L83.4 19.6 L87 22 L83.4 24.4 L81 28 L78.6 24.4 L75 22 L78.6 19.6 Z" fill="#F6C744"/>
  </g>
  <text x="540" y="1820" text-anchor="middle" font-family="'Nunito Sans','Trebuchet MS',sans-serif" font-weight="800" font-size="52" letter-spacing="-1.56"><tspan fill="#E64C81">hello</tspan><tspan fill="#312B3D" dx="13.52">paint</tspan></text>
</svg>
