<?xml version="1.0" encoding="UTF-8"?>
<svg xmlns="http://www.w3.org/2000/svg" viewBox="0 0 1500 1050" width="1500" height="1050">
  <rect width="1500" height="1050" fill="#FBF4E8"/>
  <g opacity="0.14">
    <circle cx="357" cy="864" r="12.4" fill="#E64C81"/><circle cx="574" cy="113" r="12.4" fill="#15A39A"/>
    <circle cx="840" cy="973" r="8.7" fill="#E64C81"/><circle cx="712" cy="626" r="7.4" fill="#FBD0DD"/>
    <circle cx="940" cy="423" r="5.6" fill="#E64C81"/><circle cx="1007" cy="965" r="7.8" fill="#F6C744"/>
    <circle cx="226" cy="160" r="7.4" fill="#15A39A"/><circle cx="1123" cy="110" r="7.3" fill="#5BA86B"/>
    <circle cx="304" cy="146" r="11.2" fill="#15A39A"/><circle cx="1297" cy="166" r="11.5" fill="#E64C81"/>
    <circle cx="122" cy="674" r="6.6" fill="#FBD0DD"/><circle cx="1112" cy="443" r="12.5" fill="#E64C81"/>
  </g>
  <!-- smile mark -->
  <g transform="translate(704 130) scale(0.92)">
    <path d="M21 49 Q50 80 79 49" fill="none" stroke="#E64C81" stroke-width="14" stroke-linecap="round"/>
    <path d="M47 36 Q61 28 75 30" fill="none" stroke="#15A39A" stroke-width="5.4" stroke-linecap="round"/>
    <path d="M81 16 L83.4 19.6 L87 22 L83.4 24.4 L81 28 L78.6 24.4 L75 22 L78.6 19.6 Z" fill="#F6C744"/>
  </g>
  <text x="750" y="430" text-anchor="middle" font-family="'Fraunces',Georgia,serif" font-weight="600" font-size="120" letter-spacing="-3" fill="#E64C81">thank you</text>
  <text x="750" y="510" text-anchor="middle" font-family="'Fraunces',Georgia,serif" font-style="italic" font-weight="500" font-size="48" fill="#312B3D">for painting with us.</text>
  <!-- EDITABLE handwritten-style note line -->
  <text x="750" y="650" text-anchor="middle" font-family="'Fraunces',Georgia,serif" font-style="italic" font-weight="500" font-size="34" fill="#6E6576">[your note here, two short lines is plenty]</text>
  <text x="750" y="700" text-anchor="middle" font-family="'Fraunces',Georgia,serif" font-style="italic" font-weight="500" font-size="34" fill="#6E6576">[tag us @hellopaint when it is framed]</text>
  <text x="750" y="880" text-anchor="middle" font-family="'Nunito Sans','Trebuchet MS',sans-serif" font-weight="800" font-size="44" letter-spacing="-1.32"><tspan fill="#E64C81">hello</tspan><tspan fill="#312B3D" dx="11.44">paint</tspan></text>
</svg>
