<?xml version="1.0" encoding="UTF-8"?>
<svg xmlns="http://www.w3.org/2000/svg" viewBox="0 0 1080 1080" width="1080" height="1080" class="diecut"><g opacity="0.12"><g transform="translate(40 70) scale(0.7) rotate(-12)"><path d="M21 49 Q50 80 79 49" fill="none" stroke="#312B3D" stroke-width="14" stroke-linecap="round"/><path d="M47 36 Q61 28 75 30" fill="none" stroke="#312B3D" stroke-width="5.4" stroke-linecap="round"/><path d="M81 16 L83.4 19.6 L87 22 L83.4 24.4 L81 28 L78.6 24.4 L75 22 L78.6 19.6 Z" fill="#312B3D"/></g><g transform="translate(220 70) scale(0.7) rotate(-12)"><path d="M21 49 Q50 80 79 49" fill="none" stroke="#312B3D" stroke-width="14" stroke-linecap="round"/><path d="M47 36 Q61 28 75 30" fill="none" stroke="#312B3D" stroke-width="5.4" stroke-linecap="round"/><path d="M81 16 L83.4 19.6 L87 22 L83.4 24.4 L81 28 L78.6 24.4 L75 22 L78.6 19.6 Z" fill="#312B3D"/></g><g transform="translate(400 70) scale(0.7) rotate(-12)"><path d="M21 49 Q50 80 79 49" fill="none" stroke="#312B3D" stroke-width="14" stroke-linecap="round"/><path d="M47 36 Q61 28 75 30" fill="none" stroke="#312B3D" stroke-width="5.4" stroke-linecap="round"/><path d="M81 16 L83.4 19.6 L87 22 L83.4 24.4 L81 28 L78.6 24.4 L75 22 L78.6 19.6 Z" fill="#312B3D"/></g><g transform="translate(580 70) scale(0.7) rotate(-12)"><path d="M21 49 Q50 80 79 49" fill="none" stroke="#312B3D" stroke-width="14" stroke-linecap="round"/><path d="M47 36 Q61 28 75 30" fill="none" stroke="#312B3D" stroke-width="5.4" stroke-linecap="round"/><path d="M81 16 L83.4 19.6 L87 22 L83.4 24.4 L81 28 L78.6 24.4 L75 22 L78.6 19.6 Z" fill="#312B3D"/></g><g transform="translate(760 70) scale(0.7) rotate(-12)"><path d="M21 49 Q50 80 79 49" fill="none" stroke="#312B3D" stroke-width="14" stroke-linecap="round"/><path d="M47 36 Q61 28 75 30" fill="none" stroke="#312B3D" stroke-width="5.4" stroke-linecap="round"/><path d="M81 16 L83.4 19.6 L87 22 L83.4 24.4 L81 28 L78.6 24.4 L75 22 L78.6 19.6 Z" fill="#312B3D"/></g><g transform="translate(940 70) scale(0.7) rotate(-12)"><path d="M21 49 Q50 80 79 49" fill="none" stroke="#312B3D" stroke-width="14" stroke-linecap="round"/><path d="M47 36 Q61 28 75 30" fill="none" stroke="#312B3D" stroke-width="5.4" stroke-linecap="round"/><path d="M81 16 L83.4 19.6 L87 22 L83.4 24.4 L81 28 L78.6 24.4 L75 22 L78.6 19.6 Z" fill="#312B3D"/></g><g transform="translate(130 245) scale(0.7) rotate(-12)"><path d="M21 49 Q50 80 79 49" fill="none" stroke="#312B3D" stroke-width="14" stroke-linecap="round"/><path d="M47 36 Q61 28 75 30" fill="none" stroke="#312B3D" stroke-width="5.4" stroke-linecap="round"/><path d="M81 16 L83.4 19.6 L87 22 L83.4 24.4 L81 28 L78.6 24.4 L75 22 L78.6 19.6 Z" fill="#312B3D"/></g><g transform="translate(310 245) scale(0.7) rotate(-12)"><path d="M21 49 Q50 80 79 49" fill="none" stroke="#312B3D" stroke-width="14" stroke-linecap="round"/><path d="M47 36 Q61 28 75 30" fill="none" stroke="#312B3D" stroke-width="5.4" stroke-linecap="round"/><path d="M81 16 L83.4 19.6 L87 22 L83.4 24.4 L81 28 L78.6 24.4 L75 22 L78.6 19.6 Z" fill="#312B3D"/></g><g transform="translate(490 245) scale(0.7) rotate(-12)"><path d="M21 49 Q50 80 79 49" fill="none" stroke="#312B3D" stroke-width="14" stroke-linecap="round"/><path d="M47 36 Q61 28 75 30" fill="none" stroke="#312B3D" stroke-width="5.4" stroke-linecap="round"/><path d="M81 16 L83.4 19.6 L87 22 L83.4 24.4 L81 28 L78.6 24.4 L75 22 L78.6 19.6 Z" fill="#312B3D"/></g><g transform="translate(670 245) scale(0.7) rotate(-12)"><path d="M21 49 Q50 80 79 49" fill="none" stroke="#312B3D" stroke-width="14" stroke-linecap="round"/><path d="M47 36 Q61 28 75 30" fill="none" stroke="#312B3D" stroke-width="5.4" stroke-linecap="round"/><path d="M81 16 L83.4 19.6 L87 22 L83.4 24.4 L81 28 L78.6 24.4 L75 22 L78.6 19.6 Z" fill="#312B3D"/></g><g transform="translate(850 245) scale(0.7) rotate(-12)"><path d="M21 49 Q50 80 79 49" fill="none" stroke="#312B3D" stroke-width="14" stroke-linecap="round"/><path d="M47 36 Q61 28 75 30" fill="none" stroke="#312B3D" stroke-width="5.4" stroke-linecap="round"/><path d="M81 16 L83.4 19.6 L87 22 L83.4 24.4 L81 28 L78.6 24.4 L75 22 L78.6 19.6 Z" fill="#312B3D"/></g><g transform="translate(1030 245) scale(0.7) rotate(-12)"><path d="M21 49 Q50 80 79 49" fill="none" stroke="#312B3D" stroke-width="14" stroke-linecap="round"/><path d="M47 36 Q61 28 75 30" fill="none" stroke="#312B3D" stroke-width="5.4" stroke-linecap="round"/><path d="M81 16 L83.4 19.6 L87 22 L83.4 24.4 L81 28 L78.6 24.4 L75 22 L78.6 19.6 Z" fill="#312B3D"/></g><g transform="translate(40 420) scale(0.7) rotate(-12)"><path d="M21 49 Q50 80 79 49" fill="none" stroke="#312B3D" stroke-width="14" stroke-linecap="round"/><path d="M47 36 Q61 28 75 30" fill="none" stroke="#312B3D" stroke-width="5.4" stroke-linecap="round"/><path d="M81 16 L83.4 19.6 L87 22 L83.4 24.4 L81 28 L78.6 24.4 L75 22 L78.6 19.6 Z" fill="#312B3D"/></g><g transform="translate(220 420) scale(0.7) rotate(-12)"><path d="M21 49 Q50 80 79 49" fill="none" stroke="#312B3D" stroke-width="14" stroke-linecap="round"/><path d="M47 36 Q61 28 75 30" fill="none" stroke="#312B3D" stroke-width="5.4" stroke-linecap="round"/><path d="M81 16 L83.4 19.6 L87 22 L83.4 24.4 L81 28 L78.6 24.4 L75 22 L78.6 19.6 Z" fill="#312B3D"/></g><g transform="translate(400 420) scale(0.7) rotate(-12)"><path d="M21 49 Q50 80 79 49" fill="none" stroke="#312B3D" stroke-width="14" stroke-linecap="round"/><path d="M47 36 Q61 28 75 30" fill="none" stroke="#312B3D" stroke-width="5.4" stroke-linecap="round"/><path d="M81 16 L83.4 19.6 L87 22 L83.4 24.4 L81 28 L78.6 24.4 L75 22 L78.6 19.6 Z" fill="#312B3D"/></g><g transform="translate(580 420) scale(0.7) rotate(-12)"><path d="M21 49 Q50 80 79 49" fill="none" stroke="#312B3D" stroke-width="14" stroke-linecap="round"/><path d="M47 36 Q61 28 75 30" fill="none" stroke="#312B3D" stroke-width="5.4" stroke-linecap="round"/><path d="M81 16 L83.4 19.6 L87 22 L83.4 24.4 L81 28 L78.6 24.4 L75 22 L78.6 19.6 Z" fill="#312B3D"/></g><g transform="translate(760 420) scale(0.7) rotate(-12)"><path d="M21 49 Q50 80 79 49" fill="none" stroke="#312B3D" stroke-width="14" stroke-linecap="round"/><path d="M47 36 Q61 28 75 30" fill="none" stroke="#312B3D" stroke-width="5.4" stroke-linecap="round"/><path d="M81 16 L83.4 19.6 L87 22 L83.4 24.4 L81 28 L78.6 24.4 L75 22 L78.6 19.6 Z" fill="#312B3D"/></g><g transform="translate(940 420) scale(0.7) rotate(-12)"><path d="M21 49 Q50 80 79 49" fill="none" stroke="#312B3D" stroke-width="14" stroke-linecap="round"/><path d="M47 36 Q61 28 75 30" fill="none" stroke="#312B3D" stroke-width="5.4" stroke-linecap="round"/><path d="M81 16 L83.4 19.6 L87 22 L83.4 24.4 L81 28 L78.6 24.4 L75 22 L78.6 19.6 Z" fill="#312B3D"/></g><g transform="translate(130 595) scale(0.7) rotate(-12)"><path d="M21 49 Q50 80 79 49" fill="none" stroke="#312B3D" stroke-width="14" stroke-linecap="round"/><path d="M47 36 Q61 28 75 30" fill="none" stroke="#312B3D" stroke-width="5.4" stroke-linecap="round"/><path d="M81 16 L83.4 19.6 L87 22 L83.4 24.4 L81 28 L78.6 24.4 L75 22 L78.6 19.6 Z" fill="#312B3D"/></g><g transform="translate(310 595) scale(0.7) rotate(-12)"><path d="M21 49 Q50 80 79 49" fill="none" stroke="#312B3D" stroke-width="14" stroke-linecap="round"/><path d="M47 36 Q61 28 75 30" fill="none" stroke="#312B3D" stroke-width="5.4" stroke-linecap="round"/><path d="M81 16 L83.4 19.6 L87 22 L83.4 24.4 L81 28 L78.6 24.4 L75 22 L78.6 19.6 Z" fill="#312B3D"/></g><g transform="translate(490 595) scale(0.7) rotate(-12)"><path d="M21 49 Q50 80 79 49" fill="none" stroke="#312B3D" stroke-width="14" stroke-linecap="round"/><path d="M47 36 Q61 28 75 30" fill="none" stroke="#312B3D" stroke-width="5.4" stroke-linecap="round"/><path d="M81 16 L83.4 19.6 L87 22 L83.4 24.4 L81 28 L78.6 24.4 L75 22 L78.6 19.6 Z" fill="#312B3D"/></g><g transform="translate(670 595) scale(0.7) rotate(-12)"><path d="M21 49 Q50 80 79 49" fill="none" stroke="#312B3D" stroke-width="14" stroke-linecap="round"/><path d="M47 36 Q61 28 75 30" fill="none" stroke="#312B3D" stroke-width="5.4" stroke-linecap="round"/><path d="M81 16 L83.4 19.6 L87 22 L83.4 24.4 L81 28 L78.6 24.4 L75 22 L78.6 19.6 Z" fill="#312B3D"/></g><g transform="translate(850 595) scale(0.7) rotate(-12)"><path d="M21 49 Q50 80 79 49" fill="none" stroke="#312B3D" stroke-width="14" stroke-linecap="round"/><path d="M47 36 Q61 28 75 30" fill="none" stroke="#312B3D" stroke-width="5.4" stroke-linecap="round"/><path d="M81 16 L83.4 19.6 L87 22 L83.4 24.4 L81 28 L78.6 24.4 L75 22 L78.6 19.6 Z" fill="#312B3D"/></g><g transform="translate(1030 595) scale(0.7) rotate(-12)"><path d="M21 49 Q50 80 79 49" fill="none" stroke="#312B3D" stroke-width="14" stroke-linecap="round"/><path d="M47 36 Q61 28 75 30" fill="none" stroke="#312B3D" stroke-width="5.4" stroke-linecap="round"/><path d="M81 16 L83.4 19.6 L87 22 L83.4 24.4 L81 28 L78.6 24.4 L75 22 L78.6 19.6 Z" fill="#312B3D"/></g><g transform="translate(40 770) scale(0.7) rotate(-12)"><path d="M21 49 Q50 80 79 49" fill="none" stroke="#312B3D" stroke-width="14" stroke-linecap="round"/><path d="M47 36 Q61 28 75 30" fill="none" stroke="#312B3D" stroke-width="5.4" stroke-linecap="round"/><path d="M81 16 L83.4 19.6 L87 22 L83.4 24.4 L81 28 L78.6 24.4 L75 22 L78.6 19.6 Z" fill="#312B3D"/></g><g transform="translate(220 770) scale(0.7) rotate(-12)"><path d="M21 49 Q50 80 79 49" fill="none" stroke="#312B3D" stroke-width="14" stroke-linecap="round"/><path d="M47 36 Q61 28 75 30" fill="none" stroke="#312B3D" stroke-width="5.4" stroke-linecap="round"/><path d="M81 16 L83.4 19.6 L87 22 L83.4 24.4 L81 28 L78.6 24.4 L75 22 L78.6 19.6 Z" fill="#312B3D"/></g><g transform="translate(400 770) scale(0.7) rotate(-12)"><path d="M21 49 Q50 80 79 49" fill="none" stroke="#312B3D" stroke-width="14" stroke-linecap="round"/><path d="M47 36 Q61 28 75 30" fill="none" stroke="#312B3D" stroke-width="5.4" stroke-linecap="round"/><path d="M81 16 L83.4 19.6 L87 22 L83.4 24.4 L81 28 L78.6 24.4 L75 22 L78.6 19.6 Z" fill="#312B3D"/></g><g transform="translate(580 770) scale(0.7) rotate(-12)"><path d="M21 49 Q50 80 79 49" fill="none" stroke="#312B3D" stroke-width="14" stroke-linecap="round"/><path d="M47 36 Q61 28 75 30" fill="none" stroke="#312B3D" stroke-width="5.4" stroke-linecap="round"/><path d="M81 16 L83.4 19.6 L87 22 L83.4 24.4 L81 28 L78.6 24.4 L75 22 L78.6 19.6 Z" fill="#312B3D"/></g><g transform="translate(760 770) scale(0.7) rotate(-12)"><path d="M21 49 Q50 80 79 49" fill="none" stroke="#312B3D" stroke-width="14" stroke-linecap="round"/><path d="M47 36 Q61 28 75 30" fill="none" stroke="#312B3D" stroke-width="5.4" stroke-linecap="round"/><path d="M81 16 L83.4 19.6 L87 22 L83.4 24.4 L81 28 L78.6 24.4 L75 22 L78.6 19.6 Z" fill="#312B3D"/></g><g transform="translate(940 770) scale(0.7) rotate(-12)"><path d="M21 49 Q50 80 79 49" fill="none" stroke="#312B3D" stroke-width="14" stroke-linecap="round"/><path d="M47 36 Q61 28 75 30" fill="none" stroke="#312B3D" stroke-width="5.4" stroke-linecap="round"/><path d="M81 16 L83.4 19.6 L87 22 L83.4 24.4 L81 28 L78.6 24.4 L75 22 L78.6 19.6 Z" fill="#312B3D"/></g><g transform="translate(130 945) scale(0.7) rotate(-12)"><path d="M21 49 Q50 80 79 49" fill="none" stroke="#312B3D" stroke-width="14" stroke-linecap="round"/><path d="M47 36 Q61 28 75 30" fill="none" stroke="#312B3D" stroke-width="5.4" stroke-linecap="round"/><path d="M81 16 L83.4 19.6 L87 22 L83.4 24.4 L81 28 L78.6 24.4 L75 22 L78.6 19.6 Z" fill="#312B3D"/></g><g transform="translate(310 945) scale(0.7) rotate(-12)"><path d="M21 49 Q50 80 79 49" fill="none" stroke="#312B3D" stroke-width="14" stroke-linecap="round"/><path d="M47 36 Q61 28 75 30" fill="none" stroke="#312B3D" stroke-width="5.4" stroke-linecap="round"/><path d="M81 16 L83.4 19.6 L87 22 L83.4 24.4 L81 28 L78.6 24.4 L75 22 L78.6 19.6 Z" fill="#312B3D"/></g><g transform="translate(490 945) scale(0.7) rotate(-12)"><path d="M21 49 Q50 80 79 49" fill="none" stroke="#312B3D" stroke-width="14" stroke-linecap="round"/><path d="M47 36 Q61 28 75 30" fill="none" stroke="#312B3D" stroke-width="5.4" stroke-linecap="round"/><path d="M81 16 L83.4 19.6 L87 22 L83.4 24.4 L81 28 L78.6 24.4 L75 22 L78.6 19.6 Z" fill="#312B3D"/></g><g transform="translate(670 945) scale(0.7) rotate(-12)"><path d="M21 49 Q50 80 79 49" fill="none" stroke="#312B3D" stroke-width="14" stroke-linecap="round"/><path d="M47 36 Q61 28 75 30" fill="none" stroke="#312B3D" stroke-width="5.4" stroke-linecap="round"/><path d="M81 16 L83.4 19.6 L87 22 L83.4 24.4 L81 28 L78.6 24.4 L75 22 L78.6 19.6 Z" fill="#312B3D"/></g><g transform="translate(850 945) scale(0.7) rotate(-12)"><path d="M21 49 Q50 80 79 49" fill="none" stroke="#312B3D" stroke-width="14" stroke-linecap="round"/><path d="M47 36 Q61 28 75 30" fill="none" stroke="#312B3D" stroke-width="5.4" stroke-linecap="round"/><path d="M81 16 L83.4 19.6 L87 22 L83.4 24.4 L81 28 L78.6 24.4 L75 22 L78.6 19.6 Z" fill="#312B3D"/></g><g transform="translate(1030 945) scale(0.7) rotate(-12)"><path d="M21 49 Q50 80 79 49" fill="none" stroke="#312B3D" stroke-width="14" stroke-linecap="round"/><path d="M47 36 Q61 28 75 30" fill="none" stroke="#312B3D" stroke-width="5.4" stroke-linecap="round"/><path d="M81 16 L83.4 19.6 L87 22 L83.4 24.4 L81 28 L78.6 24.4 L75 22 L78.6 19.6 Z" fill="#312B3D"/></g></g></svg>