<?xml version="1.0" encoding="UTF-8"?>
<svg xmlns="http://www.w3.org/2000/svg" viewBox="0 0 1080 1080" width="1080" height="1080"><rect width="1080" height="1080" fill="#FBF4E8"/><g opacity="0.13"><circle cx="255.8" cy="496.8" r="5.7" fill="#F6C744"/><circle cx="774.4" cy="126.6" r="5.9" fill="#5BA86B"/><circle cx="567.2" cy="752.4" r="10.3" fill="#15A39A"/><circle cx="613.0" cy="851.9" r="8.2" fill="#5BA86B"/><circle cx="15.2" cy="369.4" r="12.8" fill="#5BA86B"/><circle cx="979.6" cy="720.8" r="10.7" fill="#FBD0DD"/><circle cx="267.0" cy="161.0" r="5.6" fill="#15A39A"/><circle cx="78.6" cy="397.7" r="8.7" fill="#FBD0DD"/><circle cx="321.3" cy="636.8" r="11.1" fill="#5BA86B"/><circle cx="348.5" cy="881.6" r="11.0" fill="#E64C81"/><circle cx="745.5" cy="933.8" r="10.4" fill="#E64C81"/><circle cx="313.3" cy="175.7" r="12.0" fill="#E64C81"/><circle cx="961.2" cy="244.0" r="8.7" fill="#E64C81"/><circle cx="1.6" cy="13.5" r="9.6" fill="#5BA86B"/><circle cx="377.0" cy="660.2" r="9.9" fill="#F6C744"/><circle cx="493.2" cy="1043.9" r="5.3" fill="#F6C744"/><circle cx="128.4" cy="638.9" r="10.6" fill="#FBD0DD"/><circle cx="832.7" cy="512.6" r="5.2" fill="#E64C81"/><circle cx="26.0" cy="681.0" r="13.0" fill="#15A39A"/><circle cx="951.4" cy="1.3" r="12.2" fill="#5BA86B"/><circle cx="430.2" cy="709.7" r="10.0" fill="#F6C744"/><circle cx="876.1" cy="544.9" r="10.4" fill="#15A39A"/></g><g transform="translate(64 60) scale(0.86)"><path d="M21 49 Q50 80 79 49" fill="none" stroke="#E64C81" stroke-width="14" stroke-linecap="round"/><path d="M47 36 Q61 28 75 30" fill="none" stroke="#15A39A" stroke-width="5.4" stroke-linecap="round"/><path d="M81 16 L83.4 19.6 L87 22 L83.4 24.4 L81 28 L78.6 24.4 L75 22 L78.6 19.6 Z" fill="#F6C744"/></g><text x="1010" y="118" text-anchor="end" font-family="'Nunito Sans','Trebuchet MS',sans-serif" font-weight="800" font-size="34" fill="#312B3D">@hellopaint</text><rect x="90" y="210" width="900" height="590" rx="30" fill="#FFFFFF" stroke="#D9B79A" stroke-width="3" stroke-dasharray="12 10"/><text x="540" y="510" font-family="'Nunito Sans','Trebuchet MS',sans-serif" font-weight="800" font-size="16" letter-spacing="2" fill="#b89a7e" text-anchor="middle">DROP YOUR BEFORE / AFTER</text><text x="540" y="905" text-anchor="middle" font-family="'Nunito Sans','Trebuchet MS',sans-serif" font-weight="800" font-size="78" letter-spacing="-2.34"><tspan fill="#E64C81">hello</tspan><tspan fill="#312B3D" dx="20.28">paint</tspan></text><text x="540" y="958" font-family="'Fraunces',Georgia,serif" font-style="italic" font-weight="500" font-size="30" fill="#6E6576">your photo, painted by you</text><circle cx="474" cy="1012" r="13" fill="#E64C81"/><circle cx="518" cy="1012" r="13" fill="#15A39A"/><circle cx="562" cy="1012" r="13" fill="#F6C744"/><circle cx="606" cy="1012" r="13" fill="#5BA86B"/></svg>