<?xml version="1.0" encoding="UTF-8"?>
<svg xmlns="http://www.w3.org/2000/svg" viewBox="0 0 1200 630" width="1200" height="630"><rect width="1200" height="630" fill="#FBF4E8"/><g opacity="0.12"><circle cx="286.1" cy="518.4" r="12.4" fill="#E64C81"/><circle cx="459.4" cy="68.1" r="12.4" fill="#15A39A"/><circle cx="672.1" cy="583.7" r="8.7" fill="#E64C81"/><circle cx="570.0" cy="375.5" r="7.4" fill="#FBD0DD"/><circle cx="752.0" cy="253.8" r="5.6" fill="#E64C81"/><circle cx="805.7" cy="578.8" r="7.8" fill="#F6C744"/><circle cx="860.2" cy="577.3" r="9.2" fill="#FBD0DD"/><circle cx="374.7" cy="527.6" r="11.8" fill="#E64C81"/><circle cx="180.9" cy="9.6" r="7.4" fill="#15A39A"/><circle cx="898.8" cy="65.7" r="7.3" fill="#5BA86B"/><circle cx="744.3" cy="266.6" r="12.6" fill="#15A39A"/><circle cx="847.0" cy="100.2" r="8.3" fill="#E64C81"/><circle cx="97.7" cy="404.6" r="6.6" fill="#FBD0DD"/><circle cx="243.9" cy="87.6" r="11.2" fill="#15A39A"/></g><rect x="744" y="86" width="386" height="458" rx="26" fill="#FFFFFF" stroke="#D9B79A" stroke-width="3" stroke-dasharray="12 10"/><text x="937" y="320" font-family="'Nunito Sans','Trebuchet MS',sans-serif" font-weight="800" font-size="16" letter-spacing="2" fill="#b89a7e" text-anchor="middle">YOUR BEFORE / AFTER</text><g transform="translate(70 52) scale(0.84)"><path d="M21 49 Q50 80 79 49" fill="none" stroke="#E64C81" stroke-width="14" stroke-linecap="round"/><path d="M47 36 Q61 28 75 30" fill="none" stroke="#15A39A" stroke-width="5.4" stroke-linecap="round"/><path d="M81 16 L83.4 19.6 L87 22 L83.4 24.4 L81 28 L78.6 24.4 L75 22 L78.6 19.6 Z" fill="#F6C744"/></g><text x="70" y="276" font-family="'Fraunces',Georgia,serif" font-weight="600" font-size="74" letter-spacing="-2.5" fill="#312B3D">turn your photo</text><text x="70" y="356" font-family="'Fraunces',Georgia,serif" font-weight="600" font-size="74" letter-spacing="-2.5" fill="#E64C81">into a painting.</text><text x="74" y="420" font-family="'Fraunces',Georgia,serif" font-style="italic" font-weight="500" font-size="32" fill="#6E6576">custom paint-by-number kits from your own photo</text><text x="70" y="552" font-family="'Nunito Sans','Trebuchet MS',sans-serif" font-weight="800" font-size="48" letter-spacing="-1.44"><tspan fill="#E64C81">hello</tspan><tspan fill="#312B3D" dx="12.48">paint</tspan></text></svg>