<?xml version="1.0" encoding="UTF-8"?>
<svg xmlns="http://www.w3.org/2000/svg" viewBox="0 0 1000 1500" width="1000" height="1500"><rect width="1000" height="1500" fill="#FBF4E8"/><g opacity="0.12"><circle cx="238.8" cy="1370.2" r="9.5" fill="#E64C81"/><circle cx="49.3" cy="1283.7" r="7.2" fill="#15A39A"/><circle cx="68.8" cy="1475.9" r="12.8" fill="#5BA86B"/><circle cx="451.9" cy="821.8" r="9.4" fill="#F6C744"/><circle cx="779.8" cy="627.1" r="8.3" fill="#E64C81"/><circle cx="362.5" cy="722.3" r="4.8" fill="#F6C744"/><circle cx="834.2" cy="537.2" r="5.6" fill="#E64C81"/><circle cx="122.1" cy="682.2" r="8.1" fill="#15A39A"/><circle cx="114.0" cy="932.4" r="11.0" fill="#15A39A"/><circle cx="605.6" cy="1389.5" r="6.4" fill="#5BA86B"/><circle cx="352.7" cy="469.1" r="8.6" fill="#F6C744"/><circle cx="309.8" cy="237.3" r="11.9" fill="#F6C744"/><circle cx="379.3" cy="1494.5" r="8.4" fill="#15A39A"/><circle cx="253.7" cy="1381.0" r="9.3" fill="#5BA86B"/><circle cx="174.9" cy="650.9" r="5.6" fill="#15A39A"/><circle cx="691.6" cy="1140.1" r="5.3" fill="#5BA86B"/><circle cx="741.9" cy="1324.2" r="7.3" fill="#5BA86B"/><circle cx="638.4" cy="1242.9" r="8.5" fill="#5BA86B"/><circle cx="785.7" cy="1435.8" r="6.9" fill="#E64C81"/><circle cx="207.1" cy="415.9" r="12.5" fill="#F6C744"/></g><text x="500" y="300" text-anchor="middle" font-family="'Fraunces',Georgia,serif" font-weight="600" font-size="86" letter-spacing="-2" fill="#312B3D">your photo,</text><text x="500" y="392" text-anchor="middle" font-family="'Fraunces',Georgia,serif" font-weight="600" font-size="86" letter-spacing="-2" fill="#E64C81">by the numbers.</text><rect x="90" y="470" width="820" height="820" rx="28" fill="#FFFFFF" stroke="#D9B79A" stroke-width="3" stroke-dasharray="12 10"/><text x="500" y="885" font-family="'Nunito Sans','Trebuchet MS',sans-serif" font-weight="800" font-size="16" letter-spacing="2" fill="#b89a7e" text-anchor="middle">YOUR BEFORE / AFTER</text><g transform="translate(388 1330) scale(0.78)"><path d="M21 49 Q50 80 79 49" fill="none" stroke="#E64C81" stroke-width="14" stroke-linecap="round"/><path d="M47 36 Q61 28 75 30" fill="none" stroke="#15A39A" stroke-width="5.4" stroke-linecap="round"/><path d="M81 16 L83.4 19.6 L87 22 L83.4 24.4 L81 28 L78.6 24.4 L75 22 L78.6 19.6 Z" fill="#F6C744"/></g><text x="448" y="1388" font-family="'Nunito Sans','Trebuchet MS',sans-serif" font-weight="800" font-size="56" letter-spacing="-1.68"><tspan fill="#E64C81">hello</tspan><tspan fill="#312B3D" dx="14.56">paint</tspan></text><text x="500" y="1452" text-anchor="middle" font-family="'Nunito Sans','Trebuchet MS',sans-serif" font-weight="700" font-size="28" letter-spacing="1" fill="#6E6576">hellopaint.studio</text></svg>