<?xml version="1.0" encoding="UTF-8"?>
<svg xmlns="http://www.w3.org/2000/svg" viewBox="0 0 1080 1080" width="1080" height="1080"><rect width="1080" height="1080" fill="#15A39A"/><g opacity="0.12"><circle cx="268.8" cy="293.5" r="7.7" fill="#E64C81"/><circle cx="407.7" cy="320.0" r="9.1" fill="#E64C81"/><circle cx="319.0" cy="515.8" r="10.9" fill="#FBD0DD"/><circle cx="918.3" cy="318.7" r="8.9" fill="#E64C81"/><circle cx="822.8" cy="878.3" r="6.1" fill="#E64C81"/><circle cx="357.2" cy="124.3" r="8.7" fill="#F6C744"/><circle cx="957.5" cy="912.8" r="10.9" fill="#E64C81"/><circle cx="192.5" cy="545.3" r="10.6" fill="#15A39A"/><circle cx="173.0" cy="418.8" r="4.9" fill="#15A39A"/><circle cx="946.6" cy="322.3" r="9.6" fill="#FBD0DD"/><circle cx="429.6" cy="478.5" r="4.6" fill="#15A39A"/><circle cx="12.9" cy="145.8" r="5.8" fill="#E64C81"/><circle cx="133.8" cy="218.8" r="8.4" fill="#5BA86B"/><circle cx="610.3" cy="262.7" r="5.8" fill="#15A39A"/><circle cx="290.9" cy="120.8" r="5.1" fill="#F6C744"/><circle cx="554.8" cy="309.0" r="5.2" fill="#5BA86B"/><circle cx="196.1" cy="1077.1" r="6.4" fill="#FBD0DD"/><circle cx="808.7" cy="291.0" r="4.4" fill="#E64C81"/><circle cx="1022.1" cy="276.1" r="6.0" fill="#F6C744"/><circle cx="327.8" cy="553.8" r="5.4" fill="#FBD0DD"/><circle cx="24.9" cy="114.5" r="9.1" fill="#15A39A"/><circle cx="965.3" cy="736.8" r="6.5" fill="#E64C81"/><circle cx="206.7" cy="976.7" r="6.4" fill="#FBD0DD"/><circle cx="833.9" cy="957.3" r="4.8" fill="#FBD0DD"/></g><text x="540" y="480" text-anchor="middle" font-family="'Fraunces',Georgia,serif" font-weight="600" font-size="96" letter-spacing="-2.5" fill="#FFFFFF">the best gift</text><text x="540" y="590" text-anchor="middle" font-family="'Fraunces',Georgia,serif" font-weight="600" font-size="96" letter-spacing="-2.5" fill="#FFFFFF">is one you make.</text><g transform="translate(496 760) scale(0.9)"><path d="M21 49 Q50 80 79 49" fill="none" stroke="#FFFFFF" stroke-width="14" stroke-linecap="round"/><path d="M47 36 Q61 28 75 30" fill="none" stroke="#FFFFFF" stroke-width="5.4" stroke-linecap="round"/><path d="M81 16 L83.4 19.6 L87 22 L83.4 24.4 L81 28 L78.6 24.4 L75 22 L78.6 19.6 Z" fill="#F6C744"/></g><text x="540" y="990" text-anchor="middle" font-family="'Nunito Sans','Trebuchet MS',sans-serif" font-weight="800" font-size="56" letter-spacing="-1.68"><tspan fill="#E64C81">hello</tspan><tspan fill="#FFFFFF" dx="14.56">paint</tspan></text></svg>