<?xml version="1.0" encoding="UTF-8"?>
<svg xmlns="http://www.w3.org/2000/svg" viewBox="0 0 1080 1080" width="1080" height="1080"><rect width="1080" height="1080" fill="#BFE6F2"/><g opacity="0.14"><circle cx="267.1" cy="981.7" r="10.1" fill="#F6C744"/><circle cx="768.5" cy="329.9" r="11.6" fill="#FBD0DD"/><circle cx="281.4" cy="267.6" r="12.6" fill="#5BA86B"/><circle cx="1018.2" cy="526.9" r="9.7" fill="#15A39A"/><circle cx="161.1" cy="812.7" r="4.4" fill="#FBD0DD"/><circle cx="611.7" cy="932.8" r="11.5" fill="#FBD0DD"/><circle cx="450.3" cy="84.2" r="7.3" fill="#E64C81"/><circle cx="1013.9" cy="38.5" r="7.5" fill="#5BA86B"/><circle cx="331.5" cy="1039.2" r="8.6" fill="#FBD0DD"/><circle cx="486.2" cy="11.2" r="4.3" fill="#E64C81"/><circle cx="505.2" cy="955.4" r="11.4" fill="#E64C81"/><circle cx="644.0" cy="149.7" r="9.5" fill="#E64C81"/><circle cx="1007.0" cy="849.2" r="10.4" fill="#15A39A"/><circle cx="392.4" cy="126.0" r="4.3" fill="#5BA86B"/><circle cx="441.3" cy="922.0" r="12.1" fill="#15A39A"/><circle cx="999.7" cy="55.4" r="5.2" fill="#E64C81"/><circle cx="953.8" cy="393.4" r="7.2" fill="#5BA86B"/><circle cx="707.2" cy="633.1" r="7.1" fill="#E64C81"/><circle cx="580.0" cy="641.9" r="5.4" fill="#FBD0DD"/><circle cx="477.9" cy="99.3" r="5.1" fill="#E64C81"/><circle cx="1052.7" cy="853.2" r="4.6" fill="#F6C744"/><circle cx="361.5" cy="990.8" r="6.2" fill="#E64C81"/><circle cx="825.8" cy="216.6" r="12.7" fill="#15A39A"/><circle cx="518.0" cy="760.9" r="11.8" fill="#5BA86B"/></g><text x="540" y="480" text-anchor="middle" font-family="'Fraunces',Georgia,serif" font-weight="600" font-size="96" letter-spacing="-2.5" fill="#312B3D">turn the page,</text><text x="540" y="590" text-anchor="middle" font-family="'Fraunces',Georgia,serif" font-weight="600" font-size="96" letter-spacing="-2.5" fill="#E64C81">start at one.</text><g transform="translate(496 760) scale(0.9)"><path d="M21 49 Q50 80 79 49" fill="none" stroke="#E64C81" stroke-width="14" stroke-linecap="round"/><path d="M47 36 Q61 28 75 30" fill="none" stroke="#15A39A" stroke-width="5.4" stroke-linecap="round"/><path d="M81 16 L83.4 19.6 L87 22 L83.4 24.4 L81 28 L78.6 24.4 L75 22 L78.6 19.6 Z" fill="#F6C744"/></g><text x="540" y="990" text-anchor="middle" font-family="'Nunito Sans','Trebuchet MS',sans-serif" font-weight="800" font-size="56" letter-spacing="-1.68"><tspan fill="#E64C81">hello</tspan><tspan fill="#312B3D" dx="14.56">paint</tspan></text></svg>