<?xml version="1.0" encoding="UTF-8"?>
<svg xmlns="http://www.w3.org/2000/svg" viewBox="0 0 1080 1080" width="1080" height="1080"><rect width="1080" height="1080" fill="#FBF4E8"/><g opacity="0.14"><circle cx="258.7" cy="102.5" r="12.8" fill="#15A39A"/><circle cx="412.9" cy="379.3" r="6.0" fill="#E64C81"/><circle cx="93.1" cy="106.7" r="11.9" fill="#E64C81"/><circle cx="438.0" cy="487.6" r="4.6" fill="#F6C744"/><circle cx="93.0" cy="484.4" r="4.6" fill="#F6C744"/><circle cx="804.2" cy="655.7" r="7.9" fill="#E64C81"/><circle cx="74.5" cy="261.1" r="7.4" fill="#5BA86B"/><circle cx="801.1" cy="744.6" r="9.7" fill="#5BA86B"/><circle cx="43.9" cy="901.1" r="9.1" fill="#E64C81"/><circle cx="344.2" cy="616.0" r="4.6" fill="#E64C81"/><circle cx="883.2" cy="99.4" r="9.7" fill="#E64C81"/><circle cx="559.0" cy="168.9" r="10.0" fill="#15A39A"/><circle cx="1053.1" cy="760.9" r="11.8" fill="#E64C81"/><circle cx="382.9" cy="522.7" r="5.6" fill="#FBD0DD"/><circle cx="113.6" cy="608.1" r="11.1" fill="#FBD0DD"/><circle cx="1064.5" cy="947.6" r="5.3" fill="#E64C81"/><circle cx="422.4" cy="215.3" r="11.4" fill="#E64C81"/><circle cx="200.1" cy="183.8" r="11.7" fill="#5BA86B"/><circle cx="529.6" cy="310.9" r="11.7" fill="#15A39A"/><circle cx="148.6" cy="1066.7" r="12.7" fill="#FBD0DD"/><circle cx="791.6" cy="226.9" r="8.9" fill="#15A39A"/><circle cx="582.7" cy="100.5" r="4.3" fill="#FBD0DD"/><circle cx="681.2" cy="736.3" r="8.5" fill="#FBD0DD"/><circle cx="18.4" cy="859.0" r="11.1" fill="#5BA86B"/></g><text x="540" y="480" text-anchor="middle" font-family="'Fraunces',Georgia,serif" font-weight="600" font-size="96" letter-spacing="-2.5" fill="#312B3D">your photo,</text><text x="540" y="590" text-anchor="middle" font-family="'Fraunces',Georgia,serif" font-weight="600" font-size="96" letter-spacing="-2.5" fill="#E64C81">painted by you.</text><g transform="translate(496 760) scale(0.9)"><path d="M21 49 Q50 80 79 49" fill="none" stroke="#E64C81" stroke-width="14" stroke-linecap="round"/><path d="M47 36 Q61 28 75 30" fill="none" stroke="#15A39A" stroke-width="5.4" stroke-linecap="round"/><path d="M81 16 L83.4 19.6 L87 22 L83.4 24.4 L81 28 L78.6 24.4 L75 22 L78.6 19.6 Z" fill="#F6C744"/></g><text x="540" y="990" text-anchor="middle" font-family="'Nunito Sans','Trebuchet MS',sans-serif" font-weight="800" font-size="56" letter-spacing="-1.68"><tspan fill="#E64C81">hello</tspan><tspan fill="#312B3D" dx="14.56">paint</tspan></text></svg>