<?xml version="1.0" encoding="UTF-8"?>
<svg xmlns="http://www.w3.org/2000/svg" viewBox="0 0 1080 1080" width="1080" height="1080"><rect width="1080" height="1080" fill="#5BA86B"/><g opacity="0.12"><circle cx="265.4" cy="589.9" r="12.4" fill="#5BA86B"/><circle cx="49.4" cy="339.7" r="5.1" fill="#5BA86B"/><circle cx="243.7" cy="19.5" r="5.3" fill="#E64C81"/><circle cx="38.2" cy="735.0" r="10.4" fill="#15A39A"/><circle cx="579.5" cy="747.0" r="11.6" fill="#E64C81"/><circle cx="866.2" cy="661.4" r="5.4" fill="#15A39A"/><circle cx="1023.1" cy="335.6" r="12.7" fill="#F6C744"/><circle cx="755.4" cy="611.7" r="4.3" fill="#E64C81"/><circle cx="489.9" cy="579.6" r="12.3" fill="#F6C744"/><circle cx="25.8" cy="780.2" r="7.9" fill="#FBD0DD"/><circle cx="580.8" cy="352.2" r="9.3" fill="#F6C744"/><circle cx="195.0" cy="153.5" r="4.2" fill="#E64C81"/><circle cx="800.2" cy="399.5" r="12.5" fill="#F6C744"/><circle cx="174.5" cy="1069.3" r="11.7" fill="#E64C81"/><circle cx="591.8" cy="643.2" r="10.1" fill="#F6C744"/><circle cx="364.7" cy="881.9" r="5.2" fill="#FBD0DD"/><circle cx="631.5" cy="789.8" r="8.1" fill="#5BA86B"/><circle cx="605.8" cy="975.3" r="9.8" fill="#F6C744"/><circle cx="137.9" cy="1007.7" r="4.9" fill="#15A39A"/><circle cx="628.0" cy="724.8" r="4.8" fill="#F6C744"/><circle cx="1000.5" cy="512.0" r="9.0" fill="#15A39A"/><circle cx="837.8" cy="164.7" r="5.8" fill="#15A39A"/><circle cx="364.9" cy="536.6" r="10.1" fill="#E64C81"/><circle cx="202.1" cy="564.6" r="9.9" fill="#F6C744"/></g><text x="540" y="480" text-anchor="middle" font-family="'Fraunces',Georgia,serif" font-weight="600" font-size="96" letter-spacing="-2.5" fill="#FFFFFF">made by you,</text><text x="540" y="590" text-anchor="middle" font-family="'Fraunces',Georgia,serif" font-weight="600" font-size="96" letter-spacing="-2.5" fill="#FFFFFF">from your photo.</text><g transform="translate(496 760) scale(0.9)"><path d="M21 49 Q50 80 79 49" fill="none" stroke="#FFFFFF" stroke-width="14" stroke-linecap="round"/><path d="M47 36 Q61 28 75 30" fill="none" stroke="#FFFFFF" stroke-width="5.4" stroke-linecap="round"/><path d="M81 16 L83.4 19.6 L87 22 L83.4 24.4 L81 28 L78.6 24.4 L75 22 L78.6 19.6 Z" fill="#F6C744"/></g><text x="540" y="990" text-anchor="middle" font-family="'Nunito Sans','Trebuchet MS',sans-serif" font-weight="800" font-size="56" letter-spacing="-1.68"><tspan fill="#E64C81">hello</tspan><tspan fill="#FFFFFF" dx="14.56">paint</tspan></text></svg>