<?xml version="1.0" encoding="UTF-8"?>
<svg xmlns="http://www.w3.org/2000/svg" viewBox="0 0 1080 1080" width="1080" height="1080"><rect width="1080" height="1080" fill="#E64C81"/><g opacity="0.12"><circle cx="260.4" cy="494.3" r="10.5" fill="#15A39A"/><circle cx="52.0" cy="369.4" r="12.5" fill="#5BA86B"/><circle cx="130.8" cy="354.9" r="10.3" fill="#F6C744"/><circle cx="338.1" cy="279.4" r="12.8" fill="#5BA86B"/><circle cx="754.6" cy="550.0" r="6.4" fill="#15A39A"/><circle cx="549.7" cy="927.2" r="5.0" fill="#15A39A"/><circle cx="581.7" cy="9.7" r="11.0" fill="#5BA86B"/><circle cx="1059.7" cy="171.3" r="12.8" fill="#15A39A"/><circle cx="965.4" cy="280.7" r="5.4" fill="#F6C744"/><circle cx="804.6" cy="927.0" r="9.9" fill="#5BA86B"/><circle cx="807.6" cy="702.6" r="11.8" fill="#15A39A"/><circle cx="1008.0" cy="165.1" r="6.3" fill="#15A39A"/><circle cx="179.8" cy="130.5" r="9.7" fill="#FBD0DD"/><circle cx="600.8" cy="659.3" r="7.1" fill="#E64C81"/><circle cx="1043.2" cy="886.9" r="4.1" fill="#E64C81"/><circle cx="619.5" cy="121.2" r="5.3" fill="#5BA86B"/><circle cx="744.7" cy="898.9" r="10.6" fill="#F6C744"/><circle cx="301.6" cy="921.7" r="9.0" fill="#5BA86B"/><circle cx="971.7" cy="1025.1" r="12.2" fill="#FBD0DD"/><circle cx="1078.5" cy="441.2" r="13.0" fill="#F6C744"/><circle cx="843.8" cy="568.2" r="4.4" fill="#5BA86B"/><circle cx="106.5" cy="926.6" r="4.6" fill="#15A39A"/><circle cx="62.1" cy="416.4" r="11.1" fill="#5BA86B"/><circle cx="334.3" cy="1055.4" r="4.0" fill="#FBD0DD"/></g><text x="540" y="480" text-anchor="middle" font-family="'Fraunces',Georgia,serif" font-weight="600" font-size="96" letter-spacing="-2.5" fill="#FFFFFF">no skills.</text><text x="540" y="590" text-anchor="middle" font-family="'Fraunces',Georgia,serif" font-weight="600" font-size="96" letter-spacing="-2.5" fill="#FFFFFF">just numbers.</text><g transform="translate(496 760) scale(0.9)"><path d="M21 49 Q50 80 79 49" fill="none" stroke="#FFFFFF" stroke-width="14" stroke-linecap="round"/><path d="M47 36 Q61 28 75 30" fill="none" stroke="#FFFFFF" stroke-width="5.4" stroke-linecap="round"/><path d="M81 16 L83.4 19.6 L87 22 L83.4 24.4 L81 28 L78.6 24.4 L75 22 L78.6 19.6 Z" fill="#F6C744"/></g><text x="540" y="990" text-anchor="middle" font-family="'Nunito Sans','Trebuchet MS',sans-serif" font-weight="800" font-size="56" letter-spacing="-1.68"><tspan fill="#FFFFFF">hello</tspan><tspan fill="#FFFFFF" dx="14.56">paint</tspan></text></svg>