<?xml version="1.0" encoding="UTF-8"?>
<svg xmlns="http://www.w3.org/2000/svg" viewBox="0 0 1080 1080" width="1080" height="1080"><rect width="1080" height="1080" fill="#F6C744"/><g opacity="0.14"><circle cx="263.7" cy="198.0" r="5.8" fill="#5BA86B"/><circle cx="410.3" cy="349.6" r="7.6" fill="#E64C81"/><circle cx="206.1" cy="851.3" r="6.9" fill="#15A39A"/><circle cx="138.1" cy="943.1" r="11.2" fill="#FBD0DD"/><circle cx="997.9" cy="681.4" r="9.9" fill="#FBD0DD"/><circle cx="40.7" cy="390.0" r="8.3" fill="#F6C744"/><circle cx="516.0" cy="586.9" r="9.1" fill="#F6C744"/><circle cx="496.8" cy="104.9" r="10.1" fill="#FBD0DD"/><circle cx="648.4" cy="120.0" r="7.0" fill="#15A39A"/><circle cx="645.4" cy="469.1" r="11.6" fill="#F6C744"/><circle cx="656.4" cy="829.0" r="7.1" fill="#5BA86B"/><circle cx="826.0" cy="157.4" r="7.9" fill="#15A39A"/><circle cx="593.4" cy="1029.9" r="5.6" fill="#FBD0DD"/><circle cx="1036.6" cy="932.7" r="10.2" fill="#FBD0DD"/><circle cx="742.3" cy="364.5" r="8.1" fill="#15A39A"/><circle cx="809.6" cy="628.3" r="5.2" fill="#F6C744"/><circle cx="309.2" cy="106.2" r="8.9" fill="#F6C744"/><circle cx="504.4" cy="237.4" r="12.5" fill="#F6C744"/><circle cx="775.8" cy="293.5" r="4.3" fill="#E64C81"/><circle cx="778.2" cy="270.3" r="4.5" fill="#FBD0DD"/><circle cx="948.2" cy="170.7" r="4.5" fill="#F6C744"/><circle cx="234.0" cy="418.7" r="5.4" fill="#15A39A"/><circle cx="984.0" cy="856.5" r="7.4" fill="#E64C81"/><circle cx="966.2" cy="368.2" r="7.9" fill="#E64C81"/></g><text x="540" y="480" text-anchor="middle" font-family="'Fraunces',Georgia,serif" font-weight="600" font-size="96" letter-spacing="-2.5" fill="#312B3D">every color,</text><text x="540" y="590" text-anchor="middle" font-family="'Fraunces',Georgia,serif" font-weight="600" font-size="96" letter-spacing="-2.5" fill="#E64C81">one studio.</text><g transform="translate(496 760) scale(0.9)"><path d="M21 49 Q50 80 79 49" fill="none" stroke="#E64C81" stroke-width="14" stroke-linecap="round"/><path d="M47 36 Q61 28 75 30" fill="none" stroke="#15A39A" stroke-width="5.4" stroke-linecap="round"/><path d="M81 16 L83.4 19.6 L87 22 L83.4 24.4 L81 28 L78.6 24.4 L75 22 L78.6 19.6 Z" fill="#F6C744"/></g><text x="540" y="990" text-anchor="middle" font-family="'Nunito Sans','Trebuchet MS',sans-serif" font-weight="800" font-size="56" letter-spacing="-1.68"><tspan fill="#E64C81">hello</tspan><tspan fill="#312B3D" dx="14.56">paint</tspan></text></svg>