<?xml version="1.0" encoding="UTF-8"?>
<svg xmlns="http://www.w3.org/2000/svg" viewBox="0 0 1080 1080" width="1080" height="1080"><rect width="1080" height="1080" fill="#312B3D"/><g opacity="0.12"><circle cx="262.1" cy="886.2" r="8.1" fill="#FBD0DD"/><circle cx="771.1" cy="359.5" r="10.0" fill="#FBD0DD"/><circle cx="168.4" cy="603.1" r="8.6" fill="#FBD0DD"/><circle cx="238.1" cy="71.3" r="12.0" fill="#5BA86B"/><circle cx="336.3" cy="615.7" r="8.1" fill="#F6C744"/><circle cx="295.2" cy="118.6" r="11.1" fill="#5BA86B"/><circle cx="8.8" cy="838.3" r="5.5" fill="#F6C744"/><circle cx="238.2" cy="678.1" r="7.0" fill="#F6C744"/><circle cx="806.9" cy="740.4" r="10.7" fill="#FBD0DD"/><circle cx="185.0" cy="158.1" r="6.3" fill="#15A39A"/><circle cx="732.0" cy="225.8" r="5.0" fill="#FBD0DD"/><circle cx="377.0" cy="161.2" r="11.6" fill="#15A39A"/><circle cx="386.6" cy="580.2" r="7.7" fill="#F6C744"/><circle cx="818.7" cy="796.0" r="8.6" fill="#F6C744"/><circle cx="892.7" cy="85.7" r="6.1" fill="#5BA86B"/><circle cx="174.6" cy="374.7" r="5.3" fill="#15A39A"/><circle cx="1066.9" cy="502.5" r="9.7" fill="#F6C744"/><circle cx="403.0" cy="579.6" r="6.3" fill="#F6C744"/><circle cx="333.8" cy="659.3" r="12.8" fill="#5BA86B"/><circle cx="928.3" cy="895.8" r="4.3" fill="#E64C81"/><circle cx="896.0" cy="909.5" r="9.0" fill="#15A39A"/><circle cx="710.2" cy="672.6" r="5.0" fill="#15A39A"/><circle cx="523.0" cy="96.4" r="4.8" fill="#F6C744"/><circle cx="650.3" cy="171.8" r="6.0" fill="#15A39A"/></g><text x="540" y="480" text-anchor="middle" font-family="'Fraunces',Georgia,serif" font-weight="600" font-size="96" letter-spacing="-2.5" fill="#FFFFFF">paint the</text><text x="540" y="590" text-anchor="middle" font-family="'Fraunces',Georgia,serif" font-weight="600" font-size="96" letter-spacing="-2.5" fill="#FFFFFF">photo you love.</text><g transform="translate(496 760) scale(0.9)"><path d="M21 49 Q50 80 79 49" fill="none" stroke="#FFFFFF" stroke-width="14" stroke-linecap="round"/><path d="M47 36 Q61 28 75 30" fill="none" stroke="#FFFFFF" stroke-width="5.4" stroke-linecap="round"/><path d="M81 16 L83.4 19.6 L87 22 L83.4 24.4 L81 28 L78.6 24.4 L75 22 L78.6 19.6 Z" fill="#F6C744"/></g><text x="540" y="990" text-anchor="middle" font-family="'Nunito Sans','Trebuchet MS',sans-serif" font-weight="800" font-size="56" letter-spacing="-1.68"><tspan fill="#E64C81">hello</tspan><tspan fill="#FFFFFF" dx="14.56">paint</tspan></text></svg>