<?xml version="1.0" encoding="UTF-8"?>
<svg xmlns="http://www.w3.org/2000/svg" viewBox="0 0 1080 1080" width="1080" height="1080"><rect width="1080" height="1080" fill="#FBF4E8"/><g opacity="0.12"><circle cx="260.0" cy="396.4" r="4.3" fill="#15A39A"/><circle cx="412.2" cy="641.9" r="8.6" fill="#F6C744"/><circle cx="661.3" cy="292.9" r="6.2" fill="#E64C81"/><circle cx="363.1" cy="331.5" r="10.7" fill="#15A39A"/><circle cx="589.2" cy="533.6" r="12.7" fill="#FBD0DD"/><circle cx="883.3" cy="319.3" r="8.0" fill="#15A39A"/><circle cx="454.9" cy="612.5" r="5.6" fill="#E64C81"/><circle cx="185.0" cy="584.6" r="7.5" fill="#E64C81"/><circle cx="1005.0" cy="705.8" r="10.8" fill="#F6C744"/><circle cx="959.5" cy="39.3" r="10.8" fill="#FBD0DD"/><circle cx="16.5" cy="821.8" r="6.8" fill="#5BA86B"/><circle cx="355.8" cy="166.0" r="11.7" fill="#FBD0DD"/><circle cx="938.1" cy="828.1" r="8.0" fill="#5BA86B"/><circle cx="546.4" cy="895.2" r="9.0" fill="#5BA86B"/><circle cx="0.8" cy="277.2" r="10.4" fill="#FBD0DD"/><circle cx="1000.8" cy="597.8" r="5.3" fill="#FBD0DD"/><circle cx="394.1" cy="188.0" r="4.0" fill="#5BA86B"/><circle cx="546.2" cy="197.2" r="11.9" fill="#15A39A"/><circle cx="591.2" cy="306.5" r="9.9" fill="#F6C744"/><circle cx="576.0" cy="597.6" r="12.9" fill="#E64C81"/><circle cx="20.8" cy="482.9" r="12.3" fill="#E64C81"/><circle cx="765.5" cy="990.0" r="6.8" fill="#5BA86B"/></g><g transform="translate(360 252) scale(0.62) translate(-50 -50)"><path d="M50 16 L61 40 L86 43 L67 61 L72 86 L50 73 L28 86 L33 61 L14 43 L39 40 Z" fill="#F6C744" stroke="#312B3D" stroke-width="4" stroke-linejoin="round"/></g><g transform="translate(452 252) scale(0.62) translate(-50 -50)"><path d="M50 16 L61 40 L86 43 L67 61 L72 86 L50 73 L28 86 L33 61 L14 43 L39 40 Z" fill="#F6C744" stroke="#312B3D" stroke-width="4" stroke-linejoin="round"/></g><g transform="translate(544 252) scale(0.62) translate(-50 -50)"><path d="M50 16 L61 40 L86 43 L67 61 L72 86 L50 73 L28 86 L33 61 L14 43 L39 40 Z" fill="#F6C744" stroke="#312B3D" stroke-width="4" stroke-linejoin="round"/></g><g transform="translate(636 252) scale(0.62) translate(-50 -50)"><path d="M50 16 L61 40 L86 43 L67 61 L72 86 L50 73 L28 86 L33 61 L14 43 L39 40 Z" fill="#F6C744" stroke="#312B3D" stroke-width="4" stroke-linejoin="round"/></g><g transform="translate(728 252) scale(0.62) translate(-50 -50)"><path d="M50 16 L61 40 L86 43 L67 61 L72 86 L50 73 L28 86 L33 61 L14 43 L39 40 Z" fill="#F6C744" stroke="#312B3D" stroke-width="4" stroke-linejoin="round"/></g><text x="540" y="494" text-anchor="middle" font-family="'Fraunces',Georgia,serif" font-style="italic" font-weight="600" font-size="72" letter-spacing="-2" fill="#312B3D">“I teared up when</text><text x="540" y="582" text-anchor="middle" font-family="'Fraunces',Georgia,serif" font-style="italic" font-weight="600" font-size="72" letter-spacing="-2" fill="#E64C81">I painted the last</text><text x="540" y="670" text-anchor="middle" font-family="'Fraunces',Georgia,serif" font-style="italic" font-weight="600" font-size="72" letter-spacing="-2" fill="#312B3D">number.”</text><text x="540" y="758" text-anchor="middle" font-family="'Nunito Sans','Trebuchet MS',sans-serif" font-weight="800" font-size="26" letter-spacing="1.5" fill="#6E6576">SARAH M. · VERIFIED BUYER</text><g transform="translate(496 846) scale(0.78)"><path d="M21 49 Q50 80 79 49" fill="none" stroke="#E64C81" stroke-width="14" stroke-linecap="round"/><path d="M47 36 Q61 28 75 30" fill="none" stroke="#15A39A" stroke-width="5.4" stroke-linecap="round"/><path d="M81 16 L83.4 19.6 L87 22 L83.4 24.4 L81 28 L78.6 24.4 L75 22 L78.6 19.6 Z" fill="#F6C744"/></g><text x="540" y="996" text-anchor="middle" font-family="'Nunito Sans','Trebuchet MS',sans-serif" font-weight="800" font-size="50" letter-spacing="-1.5"><tspan fill="#E64C81">hello</tspan><tspan fill="#312B3D" dx="13">paint</tspan></text></svg>