<?xml version="1.0" encoding="UTF-8"?>
<svg xmlns="http://www.w3.org/2000/svg" viewBox="0 0 1080 1920" width="1080" height="1920"><rect width="1080" height="1920" fill="#15A39A"/><g opacity="0.1"><circle cx="256.6" cy="1231.5" r="9.0" fill="#E64C81"/><circle cx="53.9" cy="1176.3" r="4.6" fill="#FBD0DD"/><circle cx="586.0" cy="1558.3" r="9.5" fill="#5BA86B"/><circle cx="563.0" cy="1329.4" r="12.3" fill="#FBD0DD"/><circle cx="346.0" cy="715.2" r="9.2" fill="#15A39A"/><circle cx="312.3" cy="1522.6" r="4.7" fill="#5BA86B"/><circle cx="520.6" cy="62.7" r="7.4" fill="#F6C744"/><circle cx="747.9" cy="1157.5" r="10.2" fill="#F6C744"/><circle cx="242.0" cy="1540.6" r="9.2" fill="#FBD0DD"/><circle cx="38.7" cy="883.9" r="9.1" fill="#15A39A"/><circle cx="167.7" cy="1236.2" r="11.5" fill="#15A39A"/><circle cx="537.8" cy="308.9" r="10.1" fill="#FBD0DD"/><circle cx="524.6" cy="1793.5" r="12.2" fill="#5BA86B"/><circle cx="110.6" cy="1105.5" r="5.9" fill="#FBD0DD"/><circle cx="301.7" cy="1421.5" r="6.4" fill="#15A39A"/><circle cx="810.7" cy="161.2" r="5.3" fill="#15A39A"/><circle cx="829.5" cy="1743.5" r="5.7" fill="#F6C744"/><circle cx="343.4" cy="1567.1" r="8.3" fill="#E64C81"/><circle cx="787.0" cy="1845.5" r="8.8" fill="#15A39A"/><circle cx="876.3" cy="1366.4" r="12.3" fill="#FBD0DD"/><circle cx="996.3" cy="1565.1" r="12.2" fill="#E64C81"/><circle cx="638.0" cy="743.0" r="6.1" fill="#5BA86B"/><circle cx="645.0" cy="579.9" r="9.7" fill="#15A39A"/><circle cx="703.6" cy="1570.7" r="4.1" fill="#E64C81"/><circle cx="55.5" cy="976.9" r="12.8" fill="#5BA86B"/><circle cx="1048.2" cy="1601.6" r="6.1" fill="#15A39A"/><circle cx="282.1" cy="1780.5" r="6.4" fill="#E64C81"/><circle cx="988.0" cy="815.0" r="5.1" fill="#F6C744"/><circle cx="616.0" cy="801.8" r="6.4" fill="#5BA86B"/><circle cx="768.3" cy="1645.9" r="10.9" fill="#FBD0DD"/></g><text x="540" y="360" text-anchor="middle" font-family="'Fraunces',Georgia,serif" font-style="italic" font-weight="500" font-size="50" fill="#F6C744">the gift they keep forever</text><rect x="140" y="540" width="800" height="800" rx="30" fill="rgba(255,255,255,0.06)" stroke="rgba(255,255,255,0.45)" stroke-width="3" stroke-dasharray="14 12"/><text x="540" y="950" font-family="'Nunito Sans','Trebuchet MS',sans-serif" font-weight="800" font-size="20" letter-spacing="2" fill="rgba(255,255,255,0.6)" text-anchor="middle">DROP BEFORE / AFTER</text><text x="540" y="1640" text-anchor="middle" font-family="'Nunito Sans','Trebuchet MS',sans-serif" font-weight="800" font-size="92" letter-spacing="-2.76"><tspan fill="#E64C81">hello</tspan><tspan fill="#FFFFFF" dx="23.92">paint</tspan></text><text x="540" y="1710" text-anchor="middle" font-family="'Fraunces',Georgia,serif" font-style="italic" font-weight="500" font-size="34" fill="#F6C744">your photo, painted by you</text><circle cx="456" cy="1790" r="15" fill="#E64C81" stroke="#FFFDF8" stroke-width="2.1"/><circle cx="512" cy="1790" r="15" fill="#15A39A" stroke="#FFFDF8" stroke-width="2.1"/><circle cx="568" cy="1790" r="15" fill="#F6C744" stroke="#FFFDF8" stroke-width="2.1"/><circle cx="624" cy="1790" r="15" fill="#5BA86B" stroke="#FFFDF8" stroke-width="2.1"/></svg>