<?xml version="1.0" encoding="UTF-8"?>
<svg xmlns="http://www.w3.org/2000/svg" viewBox="0 0 1280 720" width="1280" height="720"><rect width="1280" height="720" fill="#FBF4E8"/><g opacity="0.12"><circle cx="303.7" cy="396.5" r="11.9" fill="#F6C744"/><circle cx="490.8" cy="622.8" r="9.7" fill="#FBD0DD"/><circle cx="43.4" cy="543.0" r="5.4" fill="#F6C744"/><circle cx="696.8" cy="533.2" r="10.2" fill="#E64C81"/><circle cx="214.0" cy="257.2" r="6.5" fill="#FBD0DD"/><circle cx="765.6" cy="165.7" r="7.7" fill="#5BA86B"/><circle cx="466.7" cy="425.4" r="11.0" fill="#E64C81"/><circle cx="1129.8" cy="709.6" r="5.0" fill="#5BA86B"/><circle cx="333.8" cy="141.1" r="5.6" fill="#FBD0DD"/><circle cx="229.5" cy="459.6" r="10.0" fill="#15A39A"/><circle cx="541.1" cy="543.1" r="6.5" fill="#5BA86B"/><circle cx="1144.4" cy="116.5" r="6.6" fill="#F6C744"/><circle cx="240.4" cy="417.6" r="10.4" fill="#F6C744"/><circle cx="66.5" cy="571.8" r="7.8" fill="#E64C81"/><circle cx="402.2" cy="126.6" r="12.6" fill="#5BA86B"/><circle cx="132.7" cy="378.2" r="5.3" fill="#E64C81"/></g><rect x="724" y="80" width="476" height="560" rx="30" fill="#FFFFFF" stroke="#D9B79A" stroke-width="3" stroke-dasharray="13 11"/><text x="962" y="366" font-family="'Nunito Sans','Trebuchet MS',sans-serif" font-weight="800" font-size="18" letter-spacing="2" fill="#b89a7e" text-anchor="middle">YOUR FINISHED PAINTING</text><text x="80" y="244" font-family="'Fraunces',Georgia,serif" font-weight="600" font-size="80" letter-spacing="-3" fill="#312B3D">paint your</text><text x="80" y="336" font-family="'Fraunces',Georgia,serif" font-weight="600" font-size="80" letter-spacing="-3" fill="#E64C81">favorite photo.</text><circle cx="122" cy="448" r="40" fill="#E64C81"/><path d="M110 428 L110 468 L142 448 Z" fill="#FFFFFF"/><text x="182" y="460" font-family="'Nunito Sans','Trebuchet MS',sans-serif" font-weight="800" font-size="32" fill="#312B3D">watch the whole process</text><text x="80" y="656" font-family="'Nunito Sans','Trebuchet MS',sans-serif" font-weight="800" font-size="54" letter-spacing="-1.6199999999999999"><tspan fill="#E64C81">hello</tspan><tspan fill="#312B3D" dx="14.040000000000001">paint</tspan></text><circle cx="1014" cy="638" r="12" fill="#E64C81"/><circle cx="1056" cy="638" r="12" fill="#15A39A"/><circle cx="1098" cy="638" r="12" fill="#F6C744"/><circle cx="1140" cy="638" r="12" fill="#5BA86B"/></svg>