<?xml version="1.0" encoding="UTF-8"?>
<svg xmlns="http://www.w3.org/2000/svg" viewBox="0 0 1200 300" width="1200" height="300"><rect width="1200" height="300" fill="#312B3D"/><g opacity="0.12"><circle cx="287.0" cy="1.3" r="6.7" fill="#E64C81"/><circle cx="859.0" cy="181.0" r="11.1" fill="#E64C81"/><circle cx="693.0" cy="12.4" r="7.8" fill="#FBD0DD"/><circle cx="514.5" cy="149.9" r="11.5" fill="#FBD0DD"/><circle cx="1119.6" cy="130.0" r="11.0" fill="#F6C744"/><circle cx="64.3" cy="13.3" r="10.9" fill="#E64C81"/><circle cx="1141.9" cy="240.0" r="11.0" fill="#F6C744"/><circle cx="1118.3" cy="21.6" r="4.4" fill="#FBD0DD"/><circle cx="92.8" cy="68.4" r="5.5" fill="#15A39A"/><circle cx="554.6" cy="224.5" r="5.5" fill="#F6C744"/><circle cx="102.3" cy="60.7" r="4.6" fill="#FBD0DD"/><circle cx="1096.4" cy="47.2" r="6.4" fill="#FBD0DD"/><circle cx="812.6" cy="105.1" r="10.1" fill="#15A39A"/><circle cx="365.0" cy="210.7" r="7.4" fill="#E64C81"/><circle cx="168.1" cy="299.5" r="8.4" fill="#F6C744"/><circle cx="406.4" cy="95.6" r="5.3" fill="#F6C744"/><circle cx="79.8" cy="162.3" r="4.9" fill="#F6C744"/><circle cx="494.2" cy="149.8" r="5.6" fill="#E64C81"/></g><g transform="translate(552.5 41.28) scale(0.95)"><rect x="12" y="12" width="76" height="84" rx="10" fill="#FFFDF8" stroke="#FBF4E8" stroke-width="3"/><rect x="20" y="18" width="56" height="48" rx="5" fill="#FBF4E8"/><rect x="20" y="18" width="28" height="34" fill="#BFE6F2"/><circle cx="37" cy="29" r="6.3" fill="#F6C744"/><path d="M20 52 Q34 43 48 50 L48 66 L20 66 Z" fill="#5BA86B"/><line x1="48" y1="18" x2="48" y2="66" stroke="#312B3D" stroke-width="1.4"/><path d="M48 52 Q62 43 76 50 L76 66 L48 66 Z" fill="none" stroke="#312B3D" stroke-width="1.3"/><text x="55" y="33.5" font-family="'Nunito Sans','Trebuchet MS',sans-serif" font-size="12" font-weight="800" fill="#312B3D" text-anchor="middle">1</text><circle cx="67" cy="29" r="7" fill="none" stroke="#312B3D" stroke-width="1.3"/><text x="67" y="32.6" font-family="'Nunito Sans','Trebuchet MS',sans-serif" font-size="9.5" font-weight="800" fill="#312B3D" text-anchor="middle">2</text><text x="62" y="60" font-family="'Nunito Sans','Trebuchet MS',sans-serif" font-size="12" font-weight="800" fill="#312B3D" text-anchor="middle">3</text><g transform="translate(48 15) rotate(20)"><rect x="-2.5" y="-15" width="5" height="12" rx="2.5" fill="#15A39A"/><rect x="-3.5" y="-4" width="7" height="4" rx="1" fill="#312B3D"/><path d="M-3.5 -1 L3.5 -1 L0 7 Z" fill="#E64C81"/></g><circle cx="30" cy="82" r="7" fill="#BFE6F2" stroke="#312B3D" stroke-width="0.7"/><text x="30" y="85.5" font-family="'Nunito Sans','Trebuchet MS',sans-serif" font-size="9.5" font-weight="800" fill="#312B3D" text-anchor="middle">1</text><circle cx="46" cy="82" r="7" fill="#F6C744"/><text x="46" y="85.5" font-family="'Nunito Sans','Trebuchet MS',sans-serif" font-size="9.5" font-weight="800" fill="#312B3D" text-anchor="middle">2</text><circle cx="62" cy="82" r="7" fill="#5BA86B"/><text x="62" y="85.5" font-family="'Nunito Sans','Trebuchet MS',sans-serif" font-size="9.5" font-weight="800" fill="#312B3D" text-anchor="middle">3</text></g><text x="600" y="195.72" text-anchor="middle" font-family="'Nunito Sans','Trebuchet MS',sans-serif" font-weight="800" font-size="56" letter-spacing="-1.68"><tspan fill="#E64C81">hello</tspan><tspan fill="#15A39A" dx="14.56">paint</tspan></text><text x="600" y="226.72" text-anchor="middle" font-family="'Fraunces',Georgia,serif" font-style="italic" font-weight="500" font-size="19" fill="#FFFDF8">your photo, painted by you</text><circle cx="559.2" cy="250.72" r="8" fill="#E64C81"/><circle cx="586.4000000000001" cy="250.72" r="8" fill="#15A39A"/><circle cx="613.6" cy="250.72" r="8" fill="#F6C744"/><circle cx="640.8000000000001" cy="250.72" r="8" fill="#5BA86B"/></svg>