<?xml version="1.0" encoding="UTF-8"?>
<svg xmlns="http://www.w3.org/2000/svg" viewBox="0 0 1600 400" width="1600" height="400"><rect width="1600" height="400" fill="#312B3D"/><g opacity="0.12"><circle cx="380.2" cy="256.6" r="9.0" fill="#E64C81"/><circle cx="79.9" cy="245.1" r="4.6" fill="#FBD0DD"/><circle cx="868.2" cy="324.6" r="9.5" fill="#5BA86B"/><circle cx="834.0" cy="277.0" r="12.3" fill="#FBD0DD"/><circle cx="512.6" cy="149.0" r="9.2" fill="#15A39A"/><circle cx="462.7" cy="317.2" r="4.7" fill="#5BA86B"/><circle cx="771.2" cy="13.1" r="7.4" fill="#F6C744"/><circle cx="1108.0" cy="241.1" r="10.2" fill="#F6C744"/><circle cx="358.5" cy="321.0" r="9.2" fill="#FBD0DD"/><circle cx="57.4" cy="184.1" r="9.1" fill="#15A39A"/><circle cx="248.4" cy="257.6" r="11.5" fill="#15A39A"/><circle cx="796.7" cy="64.3" r="10.1" fill="#FBD0DD"/><circle cx="777.1" cy="373.6" r="12.2" fill="#5BA86B"/><circle cx="163.8" cy="230.3" r="5.9" fill="#FBD0DD"/><circle cx="447.0" cy="296.1" r="6.4" fill="#15A39A"/><circle cx="1201.0" cy="33.6" r="5.3" fill="#15A39A"/><circle cx="1228.9" cy="363.2" r="5.7" fill="#F6C744"/><circle cx="508.7" cy="326.5" r="8.3" fill="#E64C81"/></g><g transform="translate(742.5 65.6) scale(1.15)"><rect x="12" y="12" width="76" height="84" rx="10" fill="#FFFDF8" stroke="#FBF4E8" stroke-width="3"/><rect x="20" y="18" width="56" height="48" rx="5" fill="#FBF4E8"/><rect x="20" y="18" width="28" height="34" fill="#BFE6F2"/><circle cx="37" cy="29" r="6.3" fill="#F6C744"/><path d="M20 52 Q34 43 48 50 L48 66 L20 66 Z" fill="#5BA86B"/><line x1="48" y1="18" x2="48" y2="66" stroke="#312B3D" stroke-width="1.4"/><path d="M48 52 Q62 43 76 50 L76 66 L48 66 Z" fill="none" stroke="#312B3D" stroke-width="1.3"/><text x="55" y="33.5" font-family="'Nunito Sans','Trebuchet MS',sans-serif" font-size="12" font-weight="800" fill="#312B3D" text-anchor="middle">1</text><circle cx="67" cy="29" r="7" fill="none" stroke="#312B3D" stroke-width="1.3"/><text x="67" y="32.6" font-family="'Nunito Sans','Trebuchet MS',sans-serif" font-size="9.5" font-weight="800" fill="#312B3D" text-anchor="middle">2</text><text x="62" y="60" font-family="'Nunito Sans','Trebuchet MS',sans-serif" font-size="12" font-weight="800" fill="#312B3D" text-anchor="middle">3</text><g transform="translate(48 15) rotate(20)"><rect x="-2.5" y="-15" width="5" height="12" rx="2.5" fill="#15A39A"/><rect x="-3.5" y="-4" width="7" height="4" rx="1" fill="#312B3D"/><path d="M-3.5 -1 L3.5 -1 L0 7 Z" fill="#E64C81"/></g><circle cx="30" cy="82" r="7" fill="#BFE6F2" stroke="#312B3D" stroke-width="0.7"/><text x="30" y="85.5" font-family="'Nunito Sans','Trebuchet MS',sans-serif" font-size="9.5" font-weight="800" fill="#312B3D" text-anchor="middle">1</text><circle cx="46" cy="82" r="7" fill="#F6C744"/><text x="46" y="85.5" font-family="'Nunito Sans','Trebuchet MS',sans-serif" font-size="9.5" font-weight="800" fill="#312B3D" text-anchor="middle">2</text><circle cx="62" cy="82" r="7" fill="#5BA86B"/><text x="62" y="85.5" font-family="'Nunito Sans','Trebuchet MS',sans-serif" font-size="9.5" font-weight="800" fill="#312B3D" text-anchor="middle">3</text></g><text x="800" y="254.39999999999998" text-anchor="middle" font-family="'Nunito Sans','Trebuchet MS',sans-serif" font-weight="800" font-size="70" letter-spacing="-2.1"><tspan fill="#E64C81">hello</tspan><tspan fill="#15A39A" dx="18.2">paint</tspan></text><text x="800" y="292.4" text-anchor="middle" font-family="'Fraunces',Georgia,serif" font-style="italic" font-weight="500" font-size="22" fill="#FFFDF8">custom paint-by-number kits from your photo</text><circle cx="749" cy="324.4" r="10" fill="#E64C81"/><circle cx="783" cy="324.4" r="10" fill="#15A39A"/><circle cx="817" cy="324.4" r="10" fill="#F6C744"/><circle cx="851" cy="324.4" r="10" fill="#5BA86B"/></svg>