<?xml version="1.0" encoding="UTF-8"?>
<svg xmlns="http://www.w3.org/2000/svg" viewBox="0 0 1640 624" width="1640" height="624"><rect width="1640" height="624" fill="#FBF4E8"/><g opacity="0.15"><circle cx="391.0" cy="513.4" r="12.4" fill="#E64C81"/><circle cx="627.9" cy="67.4" r="12.4" fill="#15A39A"/><circle cx="918.5" cy="578.1" r="8.7" fill="#E64C81"/><circle cx="779.0" cy="371.9" r="7.4" fill="#FBD0DD"/><circle cx="1027.7" cy="251.4" r="5.6" fill="#E64C81"/><circle cx="1101.1" cy="573.3" r="7.8" fill="#F6C744"/><circle cx="1175.6" cy="571.8" r="9.2" fill="#FBD0DD"/><circle cx="512.0" cy="522.6" r="11.8" fill="#E64C81"/><circle cx="247.2" cy="9.5" r="7.4" fill="#15A39A"/><circle cx="1228.3" cy="65.1" r="7.3" fill="#5BA86B"/><circle cx="1017.2" cy="264.0" r="12.6" fill="#15A39A"/><circle cx="1157.6" cy="99.3" r="8.3" fill="#E64C81"/><circle cx="133.6" cy="400.8" r="6.6" fill="#FBD0DD"/><circle cx="333.4" cy="86.8" r="11.2" fill="#15A39A"/><circle cx="343.9" cy="542.5" r="11.9" fill="#FBD0DD"/><circle cx="73.2" cy="125.6" r="5.3" fill="#FBD0DD"/><circle cx="684.4" cy="140.1" r="9.8" fill="#15A39A"/><circle cx="1418.4" cy="98.5" r="11.5" fill="#E64C81"/><circle cx="710.7" cy="182.1" r="4.5" fill="#FBD0DD"/><circle cx="1216.7" cy="263.4" r="12.5" fill="#E64C81"/><circle cx="732.6" cy="607.2" r="5.5" fill="#15A39A"/><circle cx="607.2" cy="168.1" r="10.7" fill="#15A39A"/><circle cx="1329.4" cy="408.0" r="11.0" fill="#15A39A"/><circle cx="1308.2" cy="255.2" r="5.1" fill="#F6C744"/></g><g transform="translate(727.5 111.53999999999999) scale(1.85)"><rect x="12" y="12" width="76" height="84" rx="10" fill="#FFFDF8" stroke="#312B3D" stroke-width="3"/><rect x="20" y="18" width="56" height="48" rx="5" fill="#FBF4E8"/><rect x="20" y="18" width="28" height="34" fill="#BFE6F2"/><circle cx="37" cy="29" r="6.3" fill="#F6C744"/><path d="M20 52 Q34 43 48 50 L48 66 L20 66 Z" fill="#5BA86B"/><line x1="48" y1="18" x2="48" y2="66" stroke="#312B3D" stroke-width="1.4"/><path d="M48 52 Q62 43 76 50 L76 66 L48 66 Z" fill="none" stroke="#312B3D" stroke-width="1.3"/><text x="55" y="33.5" font-family="'Nunito Sans','Trebuchet MS',sans-serif" font-size="12" font-weight="800" fill="#312B3D" text-anchor="middle">1</text><circle cx="67" cy="29" r="7" fill="none" stroke="#312B3D" stroke-width="1.3"/><text x="67" y="32.6" font-family="'Nunito Sans','Trebuchet MS',sans-serif" font-size="9.5" font-weight="800" fill="#312B3D" text-anchor="middle">2</text><text x="62" y="60" font-family="'Nunito Sans','Trebuchet MS',sans-serif" font-size="12" font-weight="800" fill="#312B3D" text-anchor="middle">3</text><g transform="translate(48 15) rotate(20)"><rect x="-2.5" y="-15" width="5" height="12" rx="2.5" fill="#15A39A"/><rect x="-3.5" y="-4" width="7" height="4" rx="1" fill="#312B3D"/><path d="M-3.5 -1 L3.5 -1 L0 7 Z" fill="#E64C81"/></g><circle cx="30" cy="82" r="7" fill="#BFE6F2" stroke="#312B3D" stroke-width="0.7"/><text x="30" y="85.5" font-family="'Nunito Sans','Trebuchet MS',sans-serif" font-size="9.5" font-weight="800" fill="#312B3D" text-anchor="middle">1</text><circle cx="46" cy="82" r="7" fill="#F6C744"/><text x="46" y="85.5" font-family="'Nunito Sans','Trebuchet MS',sans-serif" font-size="9.5" font-weight="800" fill="#312B3D" text-anchor="middle">2</text><circle cx="62" cy="82" r="7" fill="#5BA86B"/><text x="62" y="85.5" font-family="'Nunito Sans','Trebuchet MS',sans-serif" font-size="9.5" font-weight="800" fill="#312B3D" text-anchor="middle">3</text></g><text x="820" y="410.46" text-anchor="middle" font-family="'Nunito Sans','Trebuchet MS',sans-serif" font-weight="800" font-size="108" letter-spacing="-3.2399999999999998"><tspan fill="#E64C81">hello</tspan><tspan fill="#312B3D" dx="28.080000000000002">paint</tspan></text><text x="820" y="454.46" text-anchor="middle" font-family="'Fraunces',Georgia,serif" font-style="italic" font-weight="500" font-size="28" fill="#6E6576">your photo, painted by you</text><circle cx="758.8" cy="500.46" r="12" fill="#E64C81"/><circle cx="799.5999999999999" cy="500.46" r="12" fill="#15A39A"/><circle cx="840.4" cy="500.46" r="12" fill="#F6C744"/><circle cx="881.1999999999999" cy="500.46" r="12" fill="#5BA86B"/></svg>