<?xml version="1.0" encoding="UTF-8"?>
<svg xmlns="http://www.w3.org/2000/svg" viewBox="0 0 1500 500" width="1500" height="500"><rect width="1500" height="500" fill="#FBF4E8"/><g opacity="0.16"><circle cx="355.8" cy="275.3" r="11.9" fill="#F6C744"/><circle cx="575.2" cy="432.5" r="9.7" fill="#FBD0DD"/><circle cx="50.9" cy="377.1" r="5.4" fill="#F6C744"/><circle cx="816.6" cy="370.3" r="10.2" fill="#E64C81"/><circle cx="250.8" cy="178.6" r="6.5" fill="#FBD0DD"/><circle cx="897.2" cy="115.1" r="7.7" fill="#5BA86B"/><circle cx="546.9" cy="295.4" r="11.0" fill="#E64C81"/><circle cx="1324.0" cy="492.8" r="5.0" fill="#5BA86B"/><circle cx="391.2" cy="98.0" r="5.6" fill="#FBD0DD"/><circle cx="268.9" cy="319.2" r="10.0" fill="#15A39A"/><circle cx="634.1" cy="377.1" r="6.5" fill="#5BA86B"/><circle cx="1341.0" cy="80.9" r="6.6" fill="#F6C744"/><circle cx="281.8" cy="290.0" r="10.4" fill="#F6C744"/><circle cx="77.9" cy="397.1" r="7.8" fill="#E64C81"/><circle cx="471.3" cy="87.9" r="12.6" fill="#5BA86B"/><circle cx="155.5" cy="262.6" r="5.3" fill="#E64C81"/><circle cx="665.2" cy="124.9" r="8.2" fill="#5BA86B"/><circle cx="816.7" cy="72.7" r="11.2" fill="#5BA86B"/></g><g transform="translate(672.5 72.46000000000001) scale(1.55)"><rect x="12" y="12" width="76" height="84" rx="10" fill="#FFFDF8" stroke="#312B3D" stroke-width="3"/><rect x="20" y="18" width="56" height="48" rx="5" fill="#FBF4E8"/><rect x="20" y="18" width="28" height="34" fill="#BFE6F2"/><circle cx="37" cy="29" r="6.3" fill="#F6C744"/><path d="M20 52 Q34 43 48 50 L48 66 L20 66 Z" fill="#5BA86B"/><line x1="48" y1="18" x2="48" y2="66" stroke="#312B3D" stroke-width="1.4"/><path d="M48 52 Q62 43 76 50 L76 66 L48 66 Z" fill="none" stroke="#312B3D" stroke-width="1.3"/><text x="55" y="33.5" font-family="'Nunito Sans','Trebuchet MS',sans-serif" font-size="12" font-weight="800" fill="#312B3D" text-anchor="middle">1</text><circle cx="67" cy="29" r="7" fill="none" stroke="#312B3D" stroke-width="1.3"/><text x="67" y="32.6" font-family="'Nunito Sans','Trebuchet MS',sans-serif" font-size="9.5" font-weight="800" fill="#312B3D" text-anchor="middle">2</text><text x="62" y="60" font-family="'Nunito Sans','Trebuchet MS',sans-serif" font-size="12" font-weight="800" fill="#312B3D" text-anchor="middle">3</text><g transform="translate(48 15) rotate(20)"><rect x="-2.5" y="-15" width="5" height="12" rx="2.5" fill="#15A39A"/><rect x="-3.5" y="-4" width="7" height="4" rx="1" fill="#312B3D"/><path d="M-3.5 -1 L3.5 -1 L0 7 Z" fill="#E64C81"/></g><circle cx="30" cy="82" r="7" fill="#BFE6F2" stroke="#312B3D" stroke-width="0.7"/><text x="30" y="85.5" font-family="'Nunito Sans','Trebuchet MS',sans-serif" font-size="9.5" font-weight="800" fill="#312B3D" text-anchor="middle">1</text><circle cx="46" cy="82" r="7" fill="#F6C744"/><text x="46" y="85.5" font-family="'Nunito Sans','Trebuchet MS',sans-serif" font-size="9.5" font-weight="800" fill="#312B3D" text-anchor="middle">2</text><circle cx="62" cy="82" r="7" fill="#5BA86B"/><text x="62" y="85.5" font-family="'Nunito Sans','Trebuchet MS',sans-serif" font-size="9.5" font-weight="800" fill="#312B3D" text-anchor="middle">3</text></g><text x="750" y="329.54" text-anchor="middle" font-family="'Nunito Sans','Trebuchet MS',sans-serif" font-weight="800" font-size="92" letter-spacing="-2.76"><tspan fill="#E64C81">hello</tspan><tspan fill="#312B3D" dx="23.92">paint</tspan></text><text x="750" y="371.54" text-anchor="middle" font-family="'Fraunces',Georgia,serif" font-style="italic" font-weight="500" font-size="26" fill="#6E6576">your photo, painted by you</text><circle cx="693.9" cy="416.54" r="11" fill="#E64C81"/><circle cx="731.3" cy="416.54" r="11" fill="#15A39A"/><circle cx="768.6999999999999" cy="416.54" r="11" fill="#F6C744"/><circle cx="806.0999999999999" cy="416.54" r="11" fill="#5BA86B"/></svg>