<?xml version="1.0" encoding="UTF-8"?>
<svg xmlns="http://www.w3.org/2000/svg" viewBox="0 0 2560 1440" width="2560" height="1440"><rect width="2560" height="1440" fill="#312B3D"/><g opacity="0.1"><circle cx="615.2" cy="397.9" r="7.2" fill="#15A39A"/><circle cx="1830.9" cy="1219.1" r="4.8" fill="#F6C744"/><circle cx="265.3" cy="307.8" r="11.1" fill="#FBD0DD"/><circle cx="919.8" cy="511.4" r="8.7" fill="#F6C744"/><circle cx="1004.6" cy="689.6" r="10.0" fill="#FBD0DD"/><circle cx="324.6" cy="1055.3" r="11.0" fill="#15A39A"/><circle cx="777.7" cy="180.5" r="9.2" fill="#15A39A"/><circle cx="925.4" cy="1330.6" r="11.3" fill="#F6C744"/><circle cx="2476.2" cy="67.9" r="7.3" fill="#F6C744"/><circle cx="81.6" cy="308.7" r="11.7" fill="#15A39A"/><circle cx="723.8" cy="1254.6" r="10.8" fill="#E64C81"/><circle cx="1857.2" cy="222.7" r="8.2" fill="#5BA86B"/><circle cx="1461.2" cy="594.3" r="6.3" fill="#F6C744"/><circle cx="1166.0" cy="68.0" r="10.8" fill="#15A39A"/><circle cx="91.1" cy="996.6" r="7.6" fill="#5BA86B"/><circle cx="715.9" cy="1432.5" r="5.3" fill="#15A39A"/><circle cx="103.2" cy="742.8" r="6.5" fill="#FBD0DD"/><circle cx="1874.6" cy="737.0" r="5.8" fill="#5BA86B"/><circle cx="499.3" cy="890.6" r="7.5" fill="#15A39A"/><circle cx="174.3" cy="1005.3" r="12.8" fill="#15A39A"/><circle cx="658.3" cy="530.1" r="11.2" fill="#FBD0DD"/><circle cx="816.8" cy="1404.7" r="9.0" fill="#F6C744"/><circle cx="2160.9" cy="48.4" r="9.8" fill="#FBD0DD"/><circle cx="418.1" cy="556.3" r="12.1" fill="#5BA86B"/><circle cx="2455.1" cy="885.6" r="12.2" fill="#FBD0DD"/><circle cx="1554.2" cy="655.2" r="5.0" fill="#F6C744"/><circle cx="840.8" cy="339.5" r="8.7" fill="#F6C744"/><circle cx="1225.2" cy="880.9" r="12.1" fill="#F6C744"/><circle cx="1414.9" cy="141.4" r="11.0" fill="#F6C744"/><circle cx="1881.1" cy="257.6" r="7.9" fill="#FBD0DD"/><circle cx="176.4" cy="1.0" r="4.5" fill="#15A39A"/><circle cx="1486.1" cy="1324.7" r="7.9" fill="#FBD0DD"/><circle cx="2371.2" cy="602.0" r="12.1" fill="#F6C744"/><circle cx="1024.2" cy="216.5" r="9.9" fill="#5BA86B"/><circle cx="957.5" cy="207.5" r="6.9" fill="#5BA86B"/><circle cx="1283.9" cy="593.4" r="9.7" fill="#5BA86B"/><circle cx="670.2" cy="715.0" r="8.4" fill="#F6C744"/><circle cx="1722.9" cy="1021.5" r="10.9" fill="#F6C744"/><circle cx="646.5" cy="121.7" r="10.5" fill="#F6C744"/><circle cx="1413.9" cy="443.0" r="10.2" fill="#15A39A"/><circle cx="2170.5" cy="200.2" r="10.5" fill="#E64C81"/><circle cx="2068.9" cy="137.1" r="12.8" fill="#E64C81"/><circle cx="578.3" cy="583.5" r="6.5" fill="#E64C81"/><circle cx="344.4" cy="729.6" r="5.4" fill="#F6C744"/><circle cx="2283.1" cy="860.4" r="4.8" fill="#F6C744"/><circle cx="146.4" cy="13.4" r="12.9" fill="#5BA86B"/><circle cx="360.3" cy="600.7" r="4.2" fill="#15A39A"/><circle cx="1415.7" cy="219.2" r="5.8" fill="#FBD0DD"/><circle cx="851.9" cy="190.8" r="10.1" fill="#F6C744"/><circle cx="1232.2" cy="255.4" r="6.9" fill="#F6C744"/><circle cx="2512.3" cy="1038.7" r="5.9" fill="#F6C744"/><circle cx="2120.8" cy="278.4" r="4.2" fill="#15A39A"/><circle cx="1672.8" cy="829.5" r="8.6" fill="#F6C744"/><circle cx="1955.6" cy="1313.2" r="9.7" fill="#FBD0DD"/><circle cx="1746.8" cy="1110.5" r="10.3" fill="#15A39A"/><circle cx="1305.4" cy="1363.5" r="4.6" fill="#FBD0DD"/><circle cx="1774.6" cy="1286.9" r="11.9" fill="#FBD0DD"/><circle cx="58.3" cy="972.2" r="13.0" fill="#E64C81"/><circle cx="2408.7" cy="626.9" r="6.2" fill="#FBD0DD"/><circle cx="1247.3" cy="951.4" r="7.4" fill="#5BA86B"/><circle cx="1178.4" cy="1076.6" r="9.1" fill="#FBD0DD"/><circle cx="1594.6" cy="923.0" r="6.5" fill="#E64C81"/><circle cx="75.2" cy="806.1" r="11.3" fill="#FBD0DD"/><circle cx="2057.1" cy="108.8" r="12.5" fill="#F6C744"/><circle cx="2417.7" cy="84.3" r="6.5" fill="#5BA86B"/><circle cx="2531.2" cy="371.1" r="7.4" fill="#5BA86B"/><circle cx="1556.4" cy="764.2" r="11.9" fill="#15A39A"/><circle cx="1197.8" cy="1422.8" r="12.6" fill="#FBD0DD"/><circle cx="2378.8" cy="818.6" r="11.8" fill="#F6C744"/><circle cx="1067.4" cy="1167.5" r="9.4" fill="#15A39A"/><circle cx="1374.5" cy="1205.0" r="10.8" fill="#5BA86B"/><circle cx="684.9" cy="1170.4" r="5.1" fill="#E64C81"/><circle cx="2060.2" cy="580.9" r="10.0" fill="#15A39A"/><circle cx="2274.9" cy="1418.1" r="12.3" fill="#5BA86B"/><circle cx="1764.5" cy="909.6" r="12.1" fill="#FBD0DD"/><circle cx="1486.4" cy="209.0" r="4.2" fill="#15A39A"/><circle cx="973.1" cy="915.1" r="11.6" fill="#E64C81"/><circle cx="2258.0" cy="614.0" r="7.2" fill="#FBD0DD"/><circle cx="1953.7" cy="427.2" r="6.1" fill="#15A39A"/><circle cx="482.8" cy="466.1" r="7.7" fill="#F6C744"/><circle cx="1781.1" cy="1217.6" r="9.9" fill="#E64C81"/><circle cx="473.5" cy="441.5" r="5.7" fill="#F6C744"/><circle cx="242.1" cy="4.3" r="8.0" fill="#F6C744"/><circle cx="227.2" cy="1429.3" r="8.3" fill="#5BA86B"/><circle cx="2140.4" cy="987.7" r="11.1" fill="#15A39A"/><circle cx="1810.6" cy="1272.1" r="7.4" fill="#5BA86B"/><circle cx="1202.0" cy="395.3" r="6.6" fill="#5BA86B"/><circle cx="785.0" cy="956.3" r="6.0" fill="#5BA86B"/></g><g transform="translate(1150 459.5) scale(2.6)"><rect x="12" y="12" width="76" height="84" rx="10" fill="#FFFDF8" stroke="#FBF4E8" stroke-width="3"/><rect x="20" y="18" width="56" height="48" rx="5" fill="#FBF4E8"/><rect x="20" y="18" width="28" height="34" fill="#BFE6F2"/><circle cx="37" cy="29" r="6.3" fill="#F6C744"/><path d="M20 52 Q34 43 48 50 L48 66 L20 66 Z" fill="#5BA86B"/><line x1="48" y1="18" x2="48" y2="66" stroke="#312B3D" stroke-width="1.4"/><path d="M48 52 Q62 43 76 50 L76 66 L48 66 Z" fill="none" stroke="#312B3D" stroke-width="1.3"/><text x="55" y="33.5" font-family="'Nunito Sans','Trebuchet MS',sans-serif" font-size="12" font-weight="800" fill="#312B3D" text-anchor="middle">1</text><circle cx="67" cy="29" r="7" fill="none" stroke="#312B3D" stroke-width="1.3"/><text x="67" y="32.6" font-family="'Nunito Sans','Trebuchet MS',sans-serif" font-size="9.5" font-weight="800" fill="#312B3D" text-anchor="middle">2</text><text x="62" y="60" font-family="'Nunito Sans','Trebuchet MS',sans-serif" font-size="12" font-weight="800" fill="#312B3D" text-anchor="middle">3</text><g transform="translate(48 15) rotate(20)"><rect x="-2.5" y="-15" width="5" height="12" rx="2.5" fill="#15A39A"/><rect x="-3.5" y="-4" width="7" height="4" rx="1" fill="#312B3D"/><path d="M-3.5 -1 L3.5 -1 L0 7 Z" fill="#E64C81"/></g><circle cx="30" cy="82" r="7" fill="#BFE6F2" stroke="#312B3D" stroke-width="0.7"/><text x="30" y="85.5" font-family="'Nunito Sans','Trebuchet MS',sans-serif" font-size="9.5" font-weight="800" fill="#312B3D" text-anchor="middle">1</text><circle cx="46" cy="82" r="7" fill="#F6C744"/><text x="46" y="85.5" font-family="'Nunito Sans','Trebuchet MS',sans-serif" font-size="9.5" font-weight="800" fill="#312B3D" text-anchor="middle">2</text><circle cx="62" cy="82" r="7" fill="#5BA86B"/><text x="62" y="85.5" font-family="'Nunito Sans','Trebuchet MS',sans-serif" font-size="9.5" font-weight="800" fill="#312B3D" text-anchor="middle">3</text></g><text x="1280" y="864.5" text-anchor="middle" font-family="'Nunito Sans','Trebuchet MS',sans-serif" font-weight="800" font-size="150" letter-spacing="-4.5"><tspan fill="#E64C81">hello</tspan><tspan fill="#15A39A" dx="39">paint</tspan></text><text x="1280" y="914.5" text-anchor="middle" font-family="'Fraunces',Georgia,serif" font-style="italic" font-weight="500" font-size="34" fill="#FFFDF8">your photo, painted by you</text><circle cx="1198.4" cy="964.5" r="16" fill="#E64C81"/><circle cx="1252.8000000000002" cy="964.5" r="16" fill="#15A39A"/><circle cx="1307.2" cy="964.5" r="16" fill="#F6C744"/><circle cx="1361.6000000000001" cy="964.5" r="16" fill="#5BA86B"/></svg>