<?xml version="1.0" encoding="UTF-8"?>
<svg xmlns="http://www.w3.org/2000/svg" viewBox="0 0 1050 600" width="1050" height="600"><rect width="1050" height="600" fill="#FBF4E8"/><g transform="translate(70 95) scale(1.5)"><rect x="12" y="12" width="76" height="84" rx="10" fill="#FFFDF8" stroke="#312B3D" stroke-width="3"/><rect x="20" y="18" width="56" height="48" rx="5" fill="#FBF4E8"/><rect x="20" y="18" width="28" height="34" fill="#BFE6F2"/><circle cx="37" cy="29" r="6.3" fill="#F6C744"/><path d="M20 52 Q34 43 48 50 L48 66 L20 66 Z" fill="#5BA86B"/><line x1="48" y1="18" x2="48" y2="66" stroke="#312B3D" stroke-width="1.4"/><path d="M48 52 Q62 43 76 50 L76 66 L48 66 Z" fill="none" stroke="#312B3D" stroke-width="1.3"/><text x="55" y="33.5" font-family="'Nunito Sans','Trebuchet MS',sans-serif" font-size="12" font-weight="800" fill="#312B3D" text-anchor="middle">1</text><circle cx="67" cy="29" r="7" fill="none" stroke="#312B3D" stroke-width="1.3"/><text x="67" y="32.6" font-family="'Nunito Sans','Trebuchet MS',sans-serif" font-size="9.5" font-weight="800" fill="#312B3D" text-anchor="middle">2</text><text x="62" y="60" font-family="'Nunito Sans','Trebuchet MS',sans-serif" font-size="12" font-weight="800" fill="#312B3D" text-anchor="middle">3</text><g transform="translate(48 15) rotate(20)"><rect x="-2.5" y="-15" width="5" height="12" rx="2.5" fill="#15A39A"/><rect x="-3.5" y="-4" width="7" height="4" rx="1" fill="#312B3D"/><path d="M-3.5 -1 L3.5 -1 L0 7 Z" fill="#E64C81"/></g><circle cx="30" cy="82" r="7" fill="#BFE6F2" stroke="#312B3D" stroke-width="0.7"/><text x="30" y="85.5" font-family="'Nunito Sans','Trebuchet MS',sans-serif" font-size="9.5" font-weight="800" fill="#312B3D" text-anchor="middle">1</text><circle cx="46" cy="82" r="7" fill="#F6C744"/><text x="46" y="85.5" font-family="'Nunito Sans','Trebuchet MS',sans-serif" font-size="9.5" font-weight="800" fill="#312B3D" text-anchor="middle">2</text><circle cx="62" cy="82" r="7" fill="#5BA86B"/><text x="62" y="85.5" font-family="'Nunito Sans','Trebuchet MS',sans-serif" font-size="9.5" font-weight="800" fill="#312B3D" text-anchor="middle">3</text></g><text x="255" y="305" font-family="'Nunito Sans','Trebuchet MS',sans-serif" font-weight="800" font-size="76" letter-spacing="-2.28"><tspan fill="#E64C81">hello</tspan><tspan fill="#312B3D" dx="19.76">paint</tspan></text><text x="258" y="345" font-family="'Fraunces',Georgia,serif" font-style="italic" font-weight="500" font-size="26" fill="#6E6576">your photo, painted by you</text><line x1="70" y1="470" x2="980" y2="470" stroke="#EADCC6" stroke-width="2"/><text x="70" y="528" font-family="'Nunito Sans','Trebuchet MS',sans-serif" font-weight="700" font-size="25" fill="#312B3D">hello@hellopaint.studio</text><circle cx="869" cy="518" r="10" fill="#E64C81"/><circle cx="903" cy="518" r="10" fill="#15A39A"/><circle cx="937" cy="518" r="10" fill="#F6C744"/><circle cx="971" cy="518" r="10" fill="#5BA86B"/></svg>