<?xml version="1.0" encoding="UTF-8"?>
<svg xmlns="http://www.w3.org/2000/svg" viewBox="0 0 1500 1050" width="1500" height="1050"><rect width="1500" height="1050" fill="#FBF4E8"/><g opacity="0.14"><circle cx="357.6" cy="863.9" r="12.4" fill="#E64C81"/><circle cx="574.3" cy="113.5" r="12.4" fill="#15A39A"/><circle cx="840.1" cy="972.8" r="8.7" fill="#E64C81"/><circle cx="712.5" cy="625.8" r="7.4" fill="#FBD0DD"/><circle cx="940.0" cy="423.0" r="5.6" fill="#E64C81"/><circle cx="1007.1" cy="964.6" r="7.8" fill="#F6C744"/><circle cx="1075.2" cy="962.1" r="9.2" fill="#FBD0DD"/><circle cx="468.3" cy="879.3" r="11.8" fill="#E64C81"/><circle cx="226.1" cy="16.0" r="7.4" fill="#15A39A"/><circle cx="1123.5" cy="109.6" r="7.3" fill="#5BA86B"/><circle cx="930.4" cy="444.3" r="12.6" fill="#15A39A"/><circle cx="1058.7" cy="167.0" r="8.3" fill="#E64C81"/><circle cx="122.2" cy="674.4" r="6.6" fill="#FBD0DD"/><circle cx="304.9" cy="146.0" r="11.2" fill="#15A39A"/><circle cx="314.6" cy="912.9" r="11.9" fill="#FBD0DD"/><circle cx="67.0" cy="211.4" r="5.3" fill="#FBD0DD"/><circle cx="625.9" cy="235.8" r="9.8" fill="#15A39A"/><circle cx="1297.3" cy="165.7" r="11.5" fill="#E64C81"/><circle cx="650.1" cy="306.5" r="4.5" fill="#FBD0DD"/><circle cx="1112.8" cy="443.2" r="12.5" fill="#E64C81"/></g><g transform="translate(704 150) scale(0.92)"><path d="M21 49 Q50 80 79 49" fill="none" stroke="#E64C81" stroke-width="14" stroke-linecap="round"/><path d="M47 36 Q61 28 75 30" fill="none" stroke="#15A39A" stroke-width="5.4" stroke-linecap="round"/><path d="M81 16 L83.4 19.6 L87 22 L83.4 24.4 L81 28 L78.6 24.4 L75 22 L78.6 19.6 Z" fill="#F6C744"/></g><text x="750" y="520" text-anchor="middle" font-family="'Fraunces',Georgia,serif" font-weight="600" font-size="128" letter-spacing="-3" fill="#E64C81">thank you</text><text x="750" y="610" text-anchor="middle" font-family="'Fraunces',Georgia,serif" font-style="italic" font-weight="500" font-size="52" fill="#312B3D">for painting with us.</text><text x="750" y="900" text-anchor="middle" font-family="'Nunito Sans','Trebuchet MS',sans-serif" font-weight="800" font-size="44" letter-spacing="-1.3199999999999998"><tspan fill="#E64C81">hello</tspan><tspan fill="#312B3D" dx="11.440000000000001">paint</tspan></text></svg>